<svg version="1" xmlns="http://www.w3.org/2000/svg" width="533.333" height="533.333" viewBox="0 0 400.000000 400.000000"><path d="M190.5 19.7c-12.6 6.6-15.4 23.8-5.4 33 7.5 6.9 20.3 6.9 27.8 0 7.6-7 8-20.9.8-28.5-5.5-5.9-16.6-8-23.2-4.5zm-14 59.7c-22.8 3.7-41.1 10.9-60.1 23.4-27.8 18.3-48.9 45.5-59.5 76.9l-2.8 8.3h21.7l.7-2.8c1.2-5.2 9.5-21.5 15.2-30.1 11.1-16.7 30.9-34 49.8-43.4 13.1-6.5 34.8-12.7 44.4-12.7h3.1v258h-3.1c-9.6 0-31.3-6.2-44.4-12.7-18.9-9.4-38.7-26.7-49.8-43.4-5.7-8.6-14-24.9-15.2-30.2l-.7-2.7H54.1l2.8 8.2c11.2 33 33.7 61.2 64.1 80 40.3 25 91.9 28.8 136.2 10.2 40-16.9 71.5-51.2 84.6-92.4 5.7-17.9 6.7-24.7 6.7-46s-1-28.1-6.7-46C325.5 131 283 92.7 229.7 80.9c-11.9-2.6-41.3-3.5-53.2-1.5zm48.6 21.6c38.7 7.9 72.4 33.9 90.2 69.5 9.2 18.6 13 35.5 13 57.5s-3.8 38.9-13 57.5c-12.4 24.8-34 46.4-58.8 58.8-13.1 6.5-34.8 12.7-44.4 12.7H209V99h3.1c1.7 0 7.5.9 13 2z"/></svg>