<svg version="1" xmlns="http://www.w3.org/2000/svg" width="682.667" height="682.667" viewBox="0 0 512.000000 512.000000"><g fill="#161616"><path d="M235.5.8c-18.2 1.3-45.5 7.1-64 13.6-12.7 4.4-32 13-32 14.2 0 2.1 25.1 49.4 26 49 21.8-9.9 46.5-17.4 65.3-19.7l10.2-1.3V28.9c0-15.3-.3-27.9-.7-28.1-.5-.2-2.6-.2-4.8 0zM271.4.9c-.2.2-.4 12.9-.4 28.1v27.6l10.2 1.3c80.9 10.1 149.4 71.4 168.3 150.6 20.8 86.5-17.6 175.5-94.9 219.9-17.8 10.3-37.8 17.8-60.5 22.7-12.3 2.7-49 3.8-63.9 1.9-19.6-2.4-46.1-10.5-63.2-19.3l-6.5-3.4-16.2 22.9c-9 12.6-16.3 23.3-16.3 23.8 0 2.3 30 16.2 47 21.8 13.1 4.3 32.2 8.9 45.9 10.9 16.1 2.4 54.1 2.4 70.2 0 56.2-8.4 106.1-33.2 145.6-72.5 39.3-39.2 64.6-89.7 73-146.1 2.4-16.1 2.4-54.1 0-70.2-8.4-56.4-33.7-106.9-73-146.1C402.7 41 362.3 18.5 315.1 7c-15-3.6-42.3-7.4-43.7-6.1zM102.4 51.4c-34.8 26.2-62.4 60.7-79.6 99-2.7 6-4.5 11.3-4.1 11.7.5.4 12.1 4.2 25.8 8.4 13.8 4.3 25.5 8 26.1 8.2.6.2 3.1-3.8 5.6-8.9 12.8-26.5 33-52 55-69.5l7.6-6.1-13-24.8c-7.1-13.7-13.1-25-13.3-25.2-.1-.2-4.7 3.1-10.1 7.2z"/><path d="M319 256v100h100V156H319v100zM6.1 200.6C1.7 219.9.6 230.3.6 255.5c0 17.8.4 27 1.7 35.6 8.3 55.8 33.3 106.1 71.7 144.8 10.6 10.7 26.8 24.4 27.9 23.6.8-.4 11-14.7 27.2-37.9l5.6-7.9-10.1-8.7C94.4 378.8 72 342 62.5 302.7c-6.1-24.9-7.1-56.8-2.6-82.1 1.2-6.6 1.8-12.3 1.4-12.6-.5-.4-11.9-4.2-25.6-8.4-13.6-4.2-25.3-7.9-26-8.2-1-.3-2 2.2-3.6 9.2z"/><path d="M93 281v75h100V206H93v75zM206 306v50h100V256H206v50z"/></g></svg>