<?xml version="1.0" standalone="no"?>
<!DOCTYPE svg PUBLIC "-//W3C//DTD SVG 20010904//EN"
 "http://www.w3.org/TR/2001/REC-SVG-20010904/DTD/svg10.dtd">
<svg version="1.0" xmlns="http://www.w3.org/2000/svg"
 width="512.000000pt" height="512.000000pt" viewBox="0 0 512.000000 512.000000"
 preserveAspectRatio="xMidYMid meet">
<metadata>
Created by potrace 1.14, written by Peter Selinger 2001-2017
</metadata>
<g transform="translate(0.000000,512.000000) scale(0.100000,-0.100000)"
fill="#161616" stroke="none">
<path d="M2355 5112 c-182 -13 -455 -71 -640 -136 -127 -44 -320 -130 -320
-142 0 -21 251 -494 260 -490 218 99 465 174 653 197 l102 13 0 277 c0 153 -3
279 -7 281 -5 2 -26 2 -48 0z"/>
<path d="M2714 5111 c-2 -2 -4 -129 -4 -281 l0 -276 102 -13 c809 -101 1494
-714 1683 -1506 208 -865 -176 -1755 -949 -2199 -178 -103 -378 -178 -605
-227 -123 -27 -490 -38 -639 -19 -196 24 -461 105 -632 193 l-65 34 -162 -229
c-90 -126 -163 -233 -163 -238 0 -23 300 -162 470 -218 131 -43 322 -89 459
-109 161 -24 541 -24 702 0 562 84 1061 332 1456 725 393 392 646 897 730
1461 24 161 24 541 0 702 -84 564 -337 1069 -730 1461 -340 338 -744 563
-1216 678 -150 36 -423 74 -437 61z"/>
<path d="M1024 4606 c-348 -262 -624 -607 -796 -990 -27 -60 -45 -113 -41
-117 5 -4 121 -42 258 -84 138 -43 255 -80 261 -82 6 -2 31 38 56 89 128 265
330 520 550 695 l76 61 -130 248 c-71 137 -131 250 -133 252 -1 2 -47 -31
-101 -72z"/>
<path d="M3190 2560 l0 -1000 500 0 500 0 0 1000 0 1000 -500 0 -500 0 0
-1000z"/>
<path d="M61 3114 c-44 -193 -55 -297 -55 -549 0 -178 4 -270 17 -356 83 -558
333 -1061 717 -1448 106 -107 268 -244 279 -236 8 4 110 147 272 379 l56 79
-101 87 c-302 262 -526 630 -621 1023 -61 249 -71 568 -26 821 12 66 18 123
14 126 -5 4 -119 42 -256 84 -136 42 -253 79 -260 82 -10 3 -20 -22 -36 -92z"/>
<path d="M930 2310 l0 -750 500 0 500 0 0 750 0 750 -500 0 -500 0 0 -750z"/>
<path d="M2060 2060 l0 -500 500 0 500 0 0 500 0 500 -500 0 -500 0 0 -500z"/>
</g>
</svg>
