<?xml version="1.0" standalone="no"?>
<!DOCTYPE svg PUBLIC "-//W3C//DTD SVG 20010904//EN"
 "http://www.w3.org/TR/2001/REC-SVG-20010904/DTD/svg10.dtd">
<svg version="1.0" xmlns="http://www.w3.org/2000/svg"
 width="246.000000pt" height="246.000000pt" viewBox="0 0 246.000000 246.000000"
 preserveAspectRatio="xMidYMid meet">
<metadata>
Created by potrace 1.15, written by Peter Selinger 2001-2017
</metadata>
<g transform="translate(0.000000,246.000000) scale(0.100000,-0.100000)"
fill="#161616" stroke="none">
<path d="M0 1230 l0 -1230 1230 0 1230 0 0 1230 0 1230 -1230 0 -1230 0 0
-1230z m1162 861 c63 -48 113 -109 190 -234 88 -141 84 -137 129 -137 43 0
159 -29 239 -59 l51 -19 14 24 c8 13 23 36 32 52 32 50 113 227 113 244 0 10
5 18 10 18 16 0 11 -61 -9 -115 -11 -27 -40 -94 -65 -148 l-45 -98 54 -34 c65
-42 109 -87 136 -138 17 -33 18 -42 8 -72 -13 -35 -63 -65 -109 -65 -11 0 -20
-4 -20 -10 0 -5 5 -10 11 -10 6 0 17 -6 24 -12 7 -7 37 -33 65 -58 98 -85 133
-184 88 -249 -56 -81 -189 -120 -414 -121 l-131 0 -30 -42 c-39 -53 -103 -120
-167 -174 l-48 -41 63 -104 c55 -92 107 -166 147 -208 20 -21 6 -26 -22 -7
-31 20 -113 117 -180 213 -27 40 -53 73 -56 73 -4 0 -32 -13 -64 -29 -115 -59
-216 -61 -252 -5 -17 25 -11 100 9 120 16 17 5 25 -15 12 -13 -8 -43 -21 -68
-30 -142 -50 -222 -49 -271 2 -53 55 -60 103 -33 212 20 81 138 322 165 338
10 6 -10 80 -33 123 -11 21 -11 21 -36 142 l-19 90 -89 0 c-49 0 -136 -4 -194
-8 -92 -7 -103 -6 -90 6 16 16 181 47 251 47 24 0 61 3 82 6 35 6 37 9 37 43
0 61 28 172 52 207 26 39 67 59 98 49 11 -4 36 -22 54 -40 l34 -34 11 80 c15
102 49 178 98 218 35 30 43 32 90 28 41 -4 63 -14 105 -46z"/>
<path d="M1110 1923 c-48 -18 -85 -83 -100 -178 -6 -37 -9 -69 -7 -71 2 -3 34
7 72 21 43 16 98 28 149 31 44 3 87 8 94 10 27 8 -98 159 -151 182 -30 13 -34
13 -57 5z"/>
<path d="M778 1752 c-26 -16 -44 -60 -53 -129 l-4 -33 76 0 75 0 -7 63 c-11
98 -38 129 -87 99z"/>
<path d="M1140 1661 c-19 -5 -57 -17 -85 -27 -46 -18 -50 -22 -53 -56 -6 -70
41 -366 68 -433 5 -11 18 -54 30 -95 l22 -74 -22 -18 c-40 -33 -53 -24 -85 60
-16 42 -30 79 -30 82 -1 3 -13 43 -27 90 -15 47 -36 126 -48 175 -30 129 -28
126 -55 75 -13 -25 -24 -54 -25 -66 0 -11 -7 -29 -15 -40 -14 -17 -15 -15 -9
31 4 28 15 72 26 99 10 27 17 50 16 51 -2 2 -30 4 -63 6 l-60 4 3 -40 c9 -115
68 -302 127 -400 19 -32 35 -60 35 -62 0 -10 102 -111 124 -123 22 -11 30 -9
78 20 29 18 55 35 58 39 3 3 23 19 45 36 61 45 110 89 229 207 l108 108 29
-17 c16 -10 29 -21 29 -27 0 -20 -121 -159 -254 -290 l-141 -139 58 7 c31 3
75 12 98 20 28 10 39 11 36 3 -4 -15 -122 -56 -159 -57 -17 0 -28 -6 -28 -14
0 -20 40 -106 49 -106 24 0 171 138 250 235 90 110 141 229 141 326 0 36 -1
37 -77 71 -43 20 -118 50 -168 68 -49 18 -99 36 -110 40 -11 4 -63 18 -115 30
-130 31 -140 35 -140 62 1 52 8 53 152 26 155 -30 368 -84 382 -98 6 -6 16
-10 22 -10 20 0 -9 49 -66 108 l-50 52 39 -20 c22 -11 59 -42 83 -70 24 -27
46 -50 49 -50 8 0 69 86 69 97 0 8 -48 30 -135 61 -104 38 -352 62 -435 43z"/>
<path d="M1747 1498 c-9 -18 -25 -47 -37 -65 l-21 -31 57 -26 c61 -28 94 -32
125 -16 41 22 14 87 -59 140 -23 16 -43 30 -45 30 -2 0 -11 -15 -20 -32z"/>
<path d="M1689 1228 c-2 -74 -29 -166 -70 -243 l-31 -58 73 7 c178 16 229 65
180 171 -19 42 -68 95 -120 128 l-31 19 -1 -24z"/>
<path d="M727 1043 c-33 -77 -38 -93 -39 -147 0 -31 5 -53 17 -66 35 -39 142
-34 244 11 l44 19 -39 26 c-48 31 -115 103 -156 167 -17 26 -34 47 -38 47 -4
0 -19 -26 -33 -57z"/>
<path d="M1075 754 c-67 -56 -75 -67 -75 -95 0 -54 54 -61 163 -20 l27 11 -32
65 c-18 36 -37 65 -43 65 -5 0 -23 -12 -40 -26z"/>
</g>
</svg>
