<svg version="1" xmlns="http://www.w3.org/2000/svg" width="328" height="328" viewBox="0 0 246 246"><g fill="#161616"><path d="M0 123v123h246V0H0v123zm116.2-86.1c6.3 4.8 11.3 10.9 19 23.4C144 74.4 143.6 74 148.1 74c4.3 0 15.9 2.9 23.9 5.9l5.1 1.9 1.4-2.4c.8-1.3 2.3-3.6 3.2-5.2 3.2-5 11.3-22.7 11.3-24.4 0-1 .5-1.8 1-1.8 1.6 0 1.1 6.1-.9 11.5-1.1 2.7-4 9.4-6.5 14.8l-4.5 9.8 5.4 3.4c6.5 4.2 10.9 8.7 13.6 13.8 1.7 3.3 1.8 4.2.8 7.2-1.3 3.5-6.3 6.5-10.9 6.5-1.1 0-2 .4-2 1 0 .5.5 1 1.1 1 .6 0 1.7.6 2.4 1.2.7.7 3.7 3.3 6.5 5.8 9.8 8.5 13.3 18.4 8.8 24.9-5.6 8.1-18.9 12-41.4 12.1h-13.1l-3 4.2c-3.9 5.3-10.3 12-16.7 17.4l-4.8 4.1 6.3 10.4c5.5 9.2 10.7 16.6 14.7 20.8 2 2.1.6 2.6-2.2.7-3.1-2-11.3-11.7-18-21.3-2.7-4-5.3-7.3-5.6-7.3-.4 0-3.2 1.3-6.4 2.9-11.5 5.9-21.6 6.1-25.2.5-1.7-2.5-1.1-10 .9-12 1.6-1.7.5-2.5-1.5-1.2-1.3.8-4.3 2.1-6.8 3-14.2 5-22.2 4.9-27.1-.2-5.3-5.5-6-10.3-3.3-21.2 2-8.1 13.8-32.2 16.5-33.8 1-.6-1-8-3.3-12.3-1.1-2.1-1.1-2.1-3.6-14.2l-1.9-9h-8.9c-4.9 0-13.6.4-19.4.8-9.2.7-10.3.6-9-.6 1.6-1.6 18.1-4.7 25.1-4.7 2.4 0 6.1-.3 8.2-.6 3.5-.6 3.7-.9 3.7-4.3 0-6.1 2.8-17.2 5.2-20.7 2.6-3.9 6.7-5.9 9.8-4.9 1.1.4 3.6 2.2 5.4 4l3.4 3.4 1.1-8c1.5-10.2 4.9-17.8 9.8-21.8 3.5-3 4.3-3.2 9-2.8 4.1.4 6.3 1.4 10.5 4.6z"/><path d="M111 53.7c-4.8 1.8-8.5 8.3-10 17.8-.6 3.7-.9 6.9-.7 7.1.2.3 3.4-.7 7.2-2.1 4.3-1.6 9.8-2.8 14.9-3.1 4.4-.3 8.7-.8 9.4-1 2.7-.8-9.8-15.9-15.1-18.2-3-1.3-3.4-1.3-5.7-.5zM77.8 70.8c-2.6 1.6-4.4 6-5.3 12.9l-.4 3.3h15.1l-.7-6.3c-1.1-9.8-3.8-12.9-8.7-9.9zM114 79.9c-1.9.5-5.7 1.7-8.5 2.7-4.6 1.8-5 2.2-5.3 5.6-.6 7 4.1 36.6 6.8 43.3.5 1.1 1.8 5.4 3 9.5l2.2 7.4-2.2 1.8c-4 3.3-5.3 2.4-8.5-6-1.6-4.2-3-7.9-3-8.2-.1-.3-1.3-4.3-2.7-9-1.5-4.7-3.6-12.6-4.8-17.5-3-12.9-2.8-12.6-5.5-7.5-1.3 2.5-2.4 5.4-2.5 6.6 0 1.1-.7 2.9-1.5 4-1.4 1.7-1.5 1.5-.9-3.1.4-2.8 1.5-7.2 2.6-9.9 1-2.7 1.7-5 1.6-5.1-.2-.2-3-.4-6.3-.6l-6-.4.3 4c.9 11.5 6.8 30.2 12.7 40 1.9 3.2 3.5 6 3.5 6.2 0 1 10.2 11.1 12.4 12.3 2.2 1.1 3 .9 7.8-2 2.9-1.8 5.5-3.5 5.8-3.9.3-.3 2.3-1.9 4.5-3.6 6.1-4.5 11-8.9 22.9-20.7l10.8-10.8 2.9 1.7c1.6 1 2.9 2.1 2.9 2.7 0 2-12.1 15.9-25.4 29l-14.1 13.9 5.8-.7c3.1-.3 7.5-1.2 9.8-2 2.8-1 3.9-1.1 3.6-.3-.4 1.5-12.2 5.6-15.9 5.7-1.7 0-2.8.6-2.8 1.4 0 2 4 10.6 4.9 10.6 2.4 0 17.1-13.8 25-23.5 9-11 14.1-22.9 14.1-32.6 0-3.6-.1-3.7-7.7-7.1-4.3-2-11.8-5-16.8-6.8-4.9-1.8-9.9-3.6-11-4-1.1-.4-6.3-1.8-11.5-3-13-3.1-14-3.5-14-6.2.1-5.2.8-5.3 15.2-2.6 15.5 3 36.8 8.4 38.2 9.8.6.6 1.6 1 2.2 1 2 0-.9-4.9-6.6-10.8l-5-5.2 3.9 2c2.2 1.1 5.9 4.2 8.3 7 2.4 2.7 4.6 5 4.9 5 .8 0 6.9-8.6 6.9-9.7 0-.8-4.8-3-13.5-6.1-10.4-3.8-35.2-6.2-43.5-4.3zM174.7 96.2c-.9 1.8-2.5 4.7-3.7 6.5l-2.1 3.1 5.7 2.6c6.1 2.8 9.4 3.2 12.5 1.6 4.1-2.2 1.4-8.7-5.9-14-2.3-1.6-4.3-3-4.5-3-.2 0-1.1 1.5-2 3.2zM168.9 123.2c-.2 7.4-2.9 16.6-7 24.3l-3.1 5.8 7.3-.7c17.8-1.6 22.9-6.5 18-17.1-1.9-4.2-6.8-9.5-12-12.8l-3.1-1.9-.1 2.4zM72.7 141.7c-3.3 7.7-3.8 9.3-3.9 14.7 0 3.1.5 5.3 1.7 6.6 3.5 3.9 14.2 3.4 24.4-1.1l4.4-1.9-3.9-2.6c-4.8-3.1-11.5-10.3-15.6-16.7-1.7-2.6-3.4-4.7-3.8-4.7-.4 0-1.9 2.6-3.3 5.7zM107.5 170.6c-6.7 5.6-7.5 6.7-7.5 9.5 0 5.4 5.4 6.1 16.3 2l2.7-1.1-3.2-6.5c-1.8-3.6-3.7-6.5-4.3-6.5-.5 0-2.3 1.2-4 2.6z"/></g></svg>