<?xml version="1.0" standalone="no"?>
<!DOCTYPE svg PUBLIC "-//W3C//DTD SVG 20010904//EN"
 "http://www.w3.org/TR/2001/REC-SVG-20010904/DTD/svg10.dtd">
<svg version="1.0" xmlns="http://www.w3.org/2000/svg"
 width="41.000000pt" height="71.000000pt" viewBox="0 0 41.000000 71.000000"
 preserveAspectRatio="xMidYMid meet">
<metadata>
Created by potrace 1.14, written by Peter Selinger 2001-2017
</metadata>
<g transform="translate(0.000000,71.000000) scale(0.100000,-0.100000)"
fill="#161616" stroke="none">
<path d="M225 549 c-93 -82 -181 -160 -194 -173 l-23 -24 195 -171 c107 -94
198 -171 201 -171 3 0 6 18 6 39 0 38 -5 43 -150 171 -82 72 -150 133 -150
135 0 2 68 63 150 135 145 128 150 133 150 171 0 21 -3 39 -7 38 -5 0 -84 -67
-178 -150z"/>
</g>
</svg>
