<svg version="1" xmlns="http://www.w3.org/2000/svg" width="566.667" height="565.333" viewBox="0 0 425.000000 424.000000"><g fill="#161616"><path d="M50.1 1.5c-8 1.8-15.9 6.9-20.6 13.3C18 30.3 20 57.9 34.1 77.1c4.7 6.3 107.7 118.3 109.2 118.7.7.1 12-10.6 25.2-23.8 23-23 23.9-24.1 22.6-26.2-.8-1.3-20-28.9-42.8-61.3C104.6 22.3 98.7 15 87 8.3 75.1 1.5 61.5-1 50.1 1.5zM345.4 22.4c-8.2 2-13 5.6-27.9 20.5l-14 14.1 36.3 36.2 36.2 36.3 14-14c17.5-17.4 21-23.3 21-35.4 0-11.8-1.8-14.5-23.2-35.7-10.5-10.4-20.1-19.1-22.5-20.3-5.3-2.7-13.4-3.4-19.9-1.7zM169.7 190.8L47 313.5l35.8 35.8c19.6 19.6 36.2 35.7 36.7 35.7 1.3 0 246.1-244.8 245.5-245.4-4.6-4.9-71.6-71.6-72-71.6-.3 0-55.7 55.2-123.3 122.8zM250.3 275.2l-18.2 18.3 18.5 20c10.2 11 21.1 23.1 24.1 27 14.7 18.4 14.2 18.3 32.2 3.9 8-6.4 13.3-11.5 13.7-12.9.8-3.1-.5-5.3-9-16-4-5-15.1-20.1-24.6-33.8-9.6-13.6-17.6-24.7-18-24.7-.3 0-8.7 8.2-18.7 18.2zM36.2 327.2c-5.7 21.1-22.5 90.9-22 91.4.4.4 21.9-4.6 47.9-11.1l47.1-11.8-35.8-35.8c-19.8-19.8-36-35.9-36.1-35.9-.1 0-.6 1.5-1.1 3.2zM332.9 344.4c-18.6 5.2-34.5 19.4-38.4 34.3-3.7 14.1 3.7 24.7 22.6 32.1 18.4 7.3 39.4 11.2 64.7 11.9l18.2.6V421c0-1.2-.6-3.4-1.4-4.8-2.2-4.1-5.6-12-8.1-18.7-2.4-6.2-9.6-26-12.2-33-3.3-9.2-12.5-18.1-21.3-20.5-4.8-1.4-18.5-1.1-24.1.4z"/></g></svg>