<?xml version="1.0" standalone="no"?>
<!DOCTYPE svg PUBLIC "-//W3C//DTD SVG 20010904//EN"
 "http://www.w3.org/TR/2001/REC-SVG-20010904/DTD/svg10.dtd">
<svg version="1.0" xmlns="http://www.w3.org/2000/svg"
 width="425.000000pt" height="424.000000pt" viewBox="0 0 425.000000 424.000000"
 preserveAspectRatio="xMidYMid meet">
<metadata>
Created by potrace 1.14, written by Peter Selinger 2001-2017
</metadata>
<g transform="translate(0.000000,424.000000) scale(0.100000,-0.100000)"
fill="#161616" stroke="none">
<path d="M501 4225 c-80 -18 -159 -69 -206 -133 -115 -155 -95 -431 46 -623
47 -63 1077 -1183 1092 -1187 7 -1 120 106 252 238 230 230 239 241 226 262
-8 13 -200 289 -428 613 -437 622 -496 695 -613 762 -119 68 -255 93 -369 68z"/>
<path d="M3454 4016 c-82 -20 -130 -56 -279 -205 l-140 -141 363 -362 362
-363 140 140 c175 174 210 233 210 354 0 118 -18 145 -232 357 -105 104 -201
191 -225 203 -53 27 -134 34 -199 17z"/>
<path d="M1697 2332 l-1227 -1227 358 -358 c196 -196 362 -357 367 -357 13 0
2461 2448 2455 2454 -46 49 -716 716 -720 716 -3 0 -557 -552 -1233 -1228z"/>
<path d="M2503 1488 l-182 -183 185 -200 c102 -110 211 -231 241 -270 147
-184 142 -183 322 -39 80 64 133 115 137 129 8 31 -5 53 -90 160 -40 50 -151
201 -246 338 -96 136 -176 247 -180 247 -3 0 -87 -82 -187 -182z"/>
<path d="M362 968 c-57 -211 -225 -909 -220 -914 4 -4 219 46 479 111 l471
118 -358 358 c-198 198 -360 359 -361 359 -1 0 -6 -15 -11 -32z"/>
<path d="M3329 796 c-186 -52 -345 -194 -384 -343 -37 -141 37 -247 226 -321
184 -73 394 -112 647 -119 l182 -6 0 23 c0 12 -6 34 -14 48 -22 41 -56 120
-81 187 -24 62 -96 260 -122 330 -33 92 -125 181 -213 205 -48 14 -185 11
-241 -4z"/>
</g>
</svg>
