<svg version="1" xmlns="http://www.w3.org/2000/svg" width="682.667" height="682.667" viewBox="0 0 512.000000 512.000000"><g fill="#161616"><path d="M44.1 72C23.8 77.4 6.8 94.4 1.6 114.6.2 120.1 0 135.8 0 256.2c0 149-.3 140.3 6.2 153.8 4.8 9.9 16.2 20.9 26.9 25.9 4.6 2.2 11.1 4.4 14.3 5 8.4 1.5 408.8 1.5 417.2 0 3.2-.6 9.7-2.8 14.3-5 10.7-5 22.1-16 26.9-25.9 6.6-13.6 6.2-4.5 6-157.6l-.3-138.9-3.5-7.5c-3.5-7.6-9.5-15.8-15.3-21-5.5-5-17-10.9-25.1-13-7.8-2-10.5-2-212-1.9-198.5 0-204.3.1-211.5 1.9zm416.4 40.9c4.6 2 9.1 6.9 10.3 10.9.4 1.5.7 61.7.7 133.8v131l-2.8 4.2c-1.5 2.3-4.6 5.2-7 6.4l-4.2 2.3h-403l-4.2-2.3c-2.4-1.2-5.5-4.1-7-6.4l-2.8-4.2V125.5l2.1-4c2.6-4.8 4.8-6.9 9.4-8.9 3.1-1.3 27.7-1.5 204-1.5 192.4-.1 200.7 0 204.5 1.8z"/><path d="M79.2 165.9l.3 20.1 40 19c22 10.4 40.6 19.2 41.3 19.7.8.5-13.6 7.8-39.9 20.3-22.6 10.7-41.3 20-41.5 20.5-.3.6-.3 9.9-.2 20.8l.3 19.7 59.3-31.2 59.2-31.1v-18.1l-.1-18.1-58-30.5c-31.9-16.8-58.6-30.6-59.5-30.8-1.2-.3-1.4 2.4-1.2 19.7zM235 283.5V305h141v-43H235v21.5z"/></g></svg>