<?xml version="1.0" standalone="no"?>
<!DOCTYPE svg PUBLIC "-//W3C//DTD SVG 20010904//EN"
 "http://www.w3.org/TR/2001/REC-SVG-20010904/DTD/svg10.dtd">
<svg version="1.0" xmlns="http://www.w3.org/2000/svg"
 width="512.000000pt" height="512.000000pt" viewBox="0 0 512.000000 512.000000"
 preserveAspectRatio="xMidYMid meet">
<metadata>
Created by potrace 1.14, written by Peter Selinger 2001-2017
</metadata>
<g transform="translate(0.000000,512.000000) scale(0.100000,-0.100000)"
fill="#161616" stroke="none">
<path d="M441 4400 c-203 -54 -373 -224 -425 -426 -14 -55 -16 -212 -16 -1416
0 -1490 -3 -1403 62 -1538 48 -99 162 -209 269 -259 46 -22 111 -44 143 -50
84 -15 4088 -15 4172 0 32 6 97 28 143 50 107 50 221 160 269 259 66 136 62
45 60 1576 l-3 1389 -35 75 c-35 76 -95 158 -153 210 -55 50 -170 109 -251
130 -78 20 -105 20 -2120 19 -1985 0 -2043 -1 -2115 -19z m4164 -409 c46 -20
91 -69 103 -109 4 -15 7 -617 7 -1338 l0 -1310 -28 -42 c-15 -23 -46 -52 -70
-64 l-42 -23 -2015 0 -2015 0 -42 23 c-24 12 -55 41 -70 64 l-28 42 0 1315 0
1316 21 40 c26 48 48 69 94 89 31 13 277 15 2040 15 1924 1 2007 0 2045 -18z"/>
<path d="M792 3461 l3 -201 400 -190 c220 -104 406 -192 413 -197 8 -5 -136
-78 -399 -203 -226 -107 -413 -200 -415 -205 -3 -6 -3 -99 -2 -208 l3 -197
593 312 592 311 0 181 -1 181 -580 305 c-319 168 -586 306 -595 308 -12 3 -14
-24 -12 -197z"/>
<path d="M2350 2285 l0 -215 705 0 705 0 0 215 0 215 -705 0 -705 0 0 -215z"/>
</g>
</svg>
