<svg xmlns="http://www.w3.org/2000/svg" width="200mm" height="200mm" viewBox="0 0 200 200"><path d="M76.844 25.484c-4.33 2.318-6.035 7.566-3.849 11.721 2.318 4.33 7.566 6.036 11.721 3.849 4.33-2.318 6.036-7.566 3.849-11.721-2.318-4.33-7.566-6.036-11.721-3.849zM74.439 51.025c-9.84 1.4-16.226 3.324-23.399 6.954-12.42 6.342-22.086 16.007-28.384 28.166-2.493 4.898-4.855 10.759-4.855 12.114 0 .525.744.613 4.418.525l4.46-.131 1.619-3.936c5.073-12.334 14.607-22.655 26.81-28.997 4.68-2.405 11.808-4.723 16.969-5.467l4.11-.568.132 28.34c.044 15.57.044 41.111 0 56.681l-.131 28.34-3.936-.568c-19.244-2.712-36.782-16.532-44.085-34.682l-1.487-3.718-4.418-.13c-5.16-.132-5.03-.35-3.323 4.373 7.96 22.13 26.984 38.268 50.251 42.598 6.036 1.137 17.145 1.137 23.18 0 27.116-5.073 47.89-25.848 52.963-52.963 1.137-6.036 1.137-17.145 0-23.18-4.986-26.722-25.322-47.409-51.826-52.745-4.024-.83-16.007-1.443-19.068-1.006zm15.744 9.36c19.812 2.886 37.962 18.412 44.523 38.05 2.099 6.385 2.667 10.19 2.667 17.93 0 9.622-1.4 16.183-5.248 24.317-3.892 8.223-11.852 17.582-19.112 22.437-7.085 4.723-15.526 8.134-22.83 9.228-1.924.262-3.848.568-4.242.656-.744.131-.787-2.8-.787-56.637 0-53.838.043-56.769.787-56.637.394.087 2.318.393 4.242.656z"/><g transform="translate(0 -97)" stroke="#000"><rect width="119.7" height="21.626" x="74.085" y="139.791" ry="0" rx="6.326" transform="matrix(.96987 .24362 -.27482 .9615 0 0)" fill="#fff" stroke-width="3.13"/><path d="M45.563 155.657C57.3 138.713 69.035 121.77 85.28 113.743c16.245-8.026 36.998-7.136 54.106 5.35 17.108 12.488 30.571 36.571 44.034 60.656" fill="none" stroke-width="1.877"/><path d="M132.666 176.91c1.72-8.095 3.438-16.19 11.897-15.716 8.459.473 23.657 9.514 38.856 18.555" fill="none" stroke-width="1.877"/><ellipse transform="matrix(.96987 .24362 -.27482 .9615 0 0)" cy="130.504" cx="225.843" rx="9.732" ry="9.203" fill="#fff" stroke-width="1.878"/><path d="M89.587 164.808c-22.65-5.704-41.27-10.458-41.376-10.564-.228-.229 3.583-5.731 8.669-12.517 14.361-19.163 25.869-27.854 41.252-31.156 4.956-1.064 14.18-1.067 19.143-.005 10.947 2.34 19.54 6.94 28.09 15.033 8.736 8.269 18.278 21.62 29.505 41.283l2.742 4.803-1.221.908-1.222.908-1.822-1.013c-15.553-8.648-21.301-11.22-27.219-12.174-7.105-1.146-11.156 2.456-13.565 12.06-.539 2.149-.849 2.847-1.255 2.83-.296-.013-19.07-4.691-41.721-10.395z" fill="red" stroke-width="1.24"/></g></svg>