<svg version="1" xmlns="http://www.w3.org/2000/svg" width="533.333" height="533.333" viewBox="0 0 400.000000 400.000000"><g fill="#161616"><path d="M190 20.2c-9.9 5.3-13.8 17.3-8.8 26.8 5.3 9.9 17.3 13.8 26.8 8.8 9.9-5.3 13.8-17.3 8.8-26.8-5.3-9.9-17.3-13.8-26.8-8.8zM184.5 78.6c-22.5 3.2-37.1 7.6-53.5 15.9-28.4 14.5-50.5 36.6-64.9 64.4-5.7 11.2-11.1 24.6-11.1 27.7 0 1.2 1.7 1.4 10.1 1.2l10.2-.3 3.7-9c11.6-28.2 33.4-51.8 61.3-66.3 10.7-5.5 27-10.8 38.8-12.5l9.4-1.3.3 64.8c.1 35.6.1 94 0 129.6l-.3 64.8-9-1.3c-44-6.2-84.1-37.8-100.8-79.3l-3.4-8.5-10.1-.3c-11.8-.3-11.5-.8-7.6 10 18.2 50.6 61.7 87.5 114.9 97.4 13.8 2.6 39.2 2.6 53 0 62-11.6 109.5-59.1 121.1-121.1 2.6-13.8 2.6-39.2 0-53-11.4-61.1-57.9-108.4-118.5-120.6-9.2-1.9-36.6-3.3-43.6-2.3zm36 21.4c45.3 6.6 86.8 42.1 101.8 87 4.8 14.6 6.1 23.3 6.1 41 0 22-3.2 37-12 55.6-8.9 18.8-27.1 40.2-43.7 51.3-16.2 10.8-35.5 18.6-52.2 21.1-4.4.6-8.8 1.3-9.7 1.5-1.7.3-1.8-6.4-1.8-129.5s.1-129.8 1.8-129.5c.9.2 5.3.9 9.7 1.5z"/></g></svg>