<?xml version="1.0" standalone="no"?>
<!DOCTYPE svg PUBLIC "-//W3C//DTD SVG 20010904//EN"
 "http://www.w3.org/TR/2001/REC-SVG-20010904/DTD/svg10.dtd">
<svg version="1.0" xmlns="http://www.w3.org/2000/svg"
 width="400.000000pt" height="400.000000pt" viewBox="0 0 400.000000 400.000000"
 preserveAspectRatio="xMidYMid meet">
<metadata>
Created by potrace 1.14, written by Peter Selinger 2001-2017
</metadata>
<g transform="translate(0.000000,400.000000) scale(0.100000,-0.100000)"
fill="#161616" stroke="none">
<path d="M1900 3798 c-99 -53 -138 -173 -88 -268 53 -99 173 -138 268 -88 99
53 138 173 88 268 -53 99 -173 138 -268 88z"/>
<path d="M1845 3214 c-225 -32 -371 -76 -535 -159 -284 -145 -505 -366 -649
-644 -57 -112 -111 -246 -111 -277 0 -12 17 -14 101 -12 l102 3 37 90 c116
282 334 518 613 663 107 55 270 108 388 125 l94 13 3 -648 c1 -356 1 -940 0
-1296 l-3 -648 -90 13 c-440 62 -841 378 -1008 793 l-34 85 -101 3 c-118 3
-115 8 -76 -100 182 -506 617 -875 1149 -974 138 -26 392 -26 530 0 620 116
1095 591 1211 1211 26 138 26 392 0 530 -114 611 -579 1084 -1185 1206 -92 19
-366 33 -436 23z m360 -214 c453 -66 868 -421 1018 -870 48 -146 61 -233 61
-410 0 -220 -32 -370 -120 -556 -89 -188 -271 -402 -437 -513 -162 -108 -355
-186 -522 -211 -44 -6 -88 -13 -97 -15 -17 -3 -18 64 -18 1295 0 1231 1 1298
18 1295 9 -2 53 -9 97 -15z"/>
</g>
</svg>
