<svg version="1" xmlns="http://www.w3.org/2000/svg" width="985.333" height="986.667" viewBox="0 0 739 740"><g fill="#161616"><path d="M0 370v370h739V0H0v370zm308-172c.8 1.5.8 2.1-.2 2.5-.7.3-7.8 2.7-15.8 5.4-31.9 10.8-60.5 25.2-81.7 41.1-13.5 10-12.4 10.6 4.5 2.1 28.7-14.4 65.3-26.2 94.7-30.5 32.8-4.9 71.5-6.4 96.4-3.7 42.1 4.4 82.2 16.1 119.3 34.7 5.9 3 11.3 5.4 11.9 5.4.6 0-1.1-1.8-3.7-4.1-18.4-15.3-56.9-35.2-88.7-45.8l-9.7-3.3 2.1-2.9c2.5-3.5 5-3.7 20.5-1.4 29.3 4.4 60.6 16.8 87.6 34.8l10.7 7.1 6 12.7c30.6 64.1 49.3 137.4 53.2 208.2l1.1 20.8-2.8 4.2c-4.5 6.6-22.2 23.8-30.4 29.6-21.8 15.3-47.2 24.9-75.6 28.6-19.3 2.5-16.4 3.9-31.4-14.6-7.2-8.9-13-16.3-12.8-16.4.2-.2 4.8-2 10.3-4 19.3-7.1 37.2-18 50-30.2 7.1-6.8 14-15.1 13.2-15.9-.3-.3-4.7 2-9.9 5.1-24.8 15-62.6 29.5-92.9 35.5-50.5 10.1-98.6 7.3-149.9-8.6-23.3-7.3-49.2-18.8-65-28.9-4-2.5-7.4-4.4-7.7-4.1-1 1 10 13.7 16.8 19.6 13.4 11.5 27.5 19.8 45.4 26.7 4.9 1.9 9.2 3.7 9.3 3.8.2.2-5.6 7.8-13 16.9-15.3 19-12.2 17.6-31.5 15.1-28-3.7-51.3-12.3-72.8-26.9-9.5-6.4-28.1-24.1-32.9-31.3l-2.8-4.3 1.1-20.7c4-71.1 22.6-144.1 53.2-208.2l6-12.7 10.7-7.1c26.4-17.6 57.9-30.2 86.8-34.7 13.6-2.1 19.1-2 20.4.4z"/><path d="M287 351.1c-22.6 4.4-38.3 29.4-34.2 54.1 6.1 36.8 47.6 51.4 72.3 25.6 13.9-14.5 17-39.9 7.2-58-3.5-6.4-13-15.3-19.6-18.3-8.9-4.1-16.8-5.1-25.7-3.4zM439.2 351.1c-12.3 2.4-24.3 12-30.1 24.1-11.7 24.6-1.9 54 21.6 65.1 6.1 2.8 7.8 3.2 15.8 3.2 10.9 0 17.2-1.9 25.2-7.9 10.7-7.9 17.2-20.5 18.1-35.1.8-15.2-4.3-28.9-14.3-38.4-10.2-9.6-23.3-13.6-36.3-11z"/></g></svg>