<?xml version="1.0" standalone="no"?>
<!DOCTYPE svg PUBLIC "-//W3C//DTD SVG 20010904//EN"
 "http://www.w3.org/TR/2001/REC-SVG-20010904/DTD/svg10.dtd">
<svg version="1.0" xmlns="http://www.w3.org/2000/svg"
 width="739.000000pt" height="740.000000pt" viewBox="0 0 739.000000 740.000000"
 preserveAspectRatio="xMidYMid meet">
<metadata>
Created by potrace 1.15, written by Peter Selinger 2001-2017
</metadata>
<g transform="translate(0.000000,740.000000) scale(0.100000,-0.100000)"
fill="#161616" stroke="none">
<path d="M0 3700 l0 -3700 3695 0 3695 0 0 3700 0 3700 -3695 0 -3695 0 0
-3700z m3080 1720 c8 -15 8 -21 -2 -25 -7 -3 -78 -27 -158 -54 -319 -108 -605
-252 -817 -411 -135 -100 -124 -106 45 -21 287 144 653 262 947 305 328 49
715 64 964 37 421 -44 822 -161 1193 -347 59 -30 113 -54 119 -54 6 0 -11 18
-37 41 -184 153 -569 352 -887 458 l-97 33 21 29 c25 35 50 37 205 14 293 -44
606 -168 876 -348 l107 -71 60 -127 c306 -641 493 -1374 532 -2082 l11 -208
-28 -42 c-45 -66 -222 -238 -304 -296 -218 -153 -472 -249 -756 -286 -193 -25
-164 -39 -314 146 -72 89 -130 163 -128 164 2 2 48 20 103 40 193 71 372 180
500 302 71 68 140 151 132 159 -3 3 -47 -20 -99 -51 -248 -150 -626 -295 -929
-355 -505 -101 -986 -73 -1499 86 -233 73 -492 188 -650 289 -40 25 -74 44
-77 41 -10 -10 100 -137 168 -196 134 -115 275 -198 454 -267 49 -19 92 -37
93 -38 2 -2 -56 -78 -130 -169 -153 -190 -122 -176 -315 -151 -280 37 -513
123 -728 269 -95 64 -281 241 -329 313 l-28 43 11 207 c40 711 226 1441 532
2082 l60 127 107 71 c264 176 579 302 868 347 136 21 191 20 204 -4z"/>
<path d="M2870 3889 c-226 -44 -383 -294 -342 -541 61 -368 476 -514 723 -256
139 145 170 399 72 580 -35 64 -130 153 -196 183 -89 41 -168 51 -257 34z"/>
<path d="M4392 3889 c-123 -24 -243 -120 -301 -241 -117 -246 -19 -540 216
-651 61 -28 78 -32 158 -32 109 0 172 19 252 79 107 79 172 205 181 351 8 152
-43 289 -143 384 -102 96 -233 136 -363 110z"/>
</g>
</svg>
