<svg version="1" xmlns="http://www.w3.org/2000/svg" width="1318.667" height="1318.667" viewBox="0 0 989.000000 989.000000"><path d="M0 494.5V989h529V606H400V457h129v-64.3c0-50.8.3-66.9 1.5-77.1 9.8-83.8 55.6-139.3 131-158.5 26.4-6.7 52.5-8.3 105-6.1 23.8 1 60.5 3.5 65.8 4.6l2.7.6V289h-43.8c-43.4 0-54.9.6-66.7 3.6-15.5 4-27.9 13.4-34 25.8-7.5 15.4-8.4 25.5-8.5 90.8V457h74c40.7 0 74 .3 74 .6s-4.3 33.6-9.5 74c-5.2 40.5-9.5 73.7-9.5 74 0 .2-29 .4-64.5.4H682v383h307V0H0v494.5z" fill="#161616"/></svg>