<?xml version="1.0" standalone="no"?>
<!DOCTYPE svg PUBLIC "-//W3C//DTD SVG 20010904//EN"
 "http://www.w3.org/TR/2001/REC-SVG-20010904/DTD/svg10.dtd">
<svg version="1.0" xmlns="http://www.w3.org/2000/svg"
 width="560.000000pt" height="560.000000pt" viewBox="0 0 560.000000 560.000000"
 preserveAspectRatio="xMidYMid meet">
<metadata>
Created by potrace 1.15, written by Peter Selinger 2001-2017
</metadata>
<g transform="translate(0.000000,560.000000) scale(0.100000,-0.100000)"
fill="#161616" stroke="none">
<path d="M0 2800 l0 -2800 2800 0 2800 0 0 2800 0 2800 -2800 0 -2800 0 0
-2800z m3094 2025 c852 -125 1533 -736 1741 -1565 60 -237 76 -541 41 -784
-97 -678 -516 -1259 -1131 -1568 -117 -59 -290 -128 -321 -128 -30 0 -81 31
-93 56 -7 17 -11 134 -11 372 0 271 -4 361 -15 410 -17 71 -52 145 -90 190
l-26 31 33 5 c283 46 425 96 574 202 176 124 289 330 328 595 46 312 -7 556
-161 747 l-35 42 18 68 c34 129 19 334 -33 461 l-14 34 -77 -6 c-117 -9 -288
-76 -442 -175 l-55 -35 -110 22 c-175 34 -239 41 -420 41 -181 0 -245 -7 -420
-41 l-110 -22 -55 35 c-154 99 -325 166 -441 175 -90 7 -86 11 -120 -117 -29
-110 -31 -274 -5 -372 l18 -68 -35 -42 c-154 -191 -207 -435 -161 -747 41
-280 160 -484 358 -615 92 -61 166 -95 293 -131 72 -21 242 -55 276 -55 5 0
-3 -14 -18 -31 -38 -46 -74 -121 -88 -187 l-13 -57 -65 -22 c-130 -44 -248
-40 -356 13 -66 32 -125 90 -186 181 -88 133 -195 204 -317 211 -54 3 -70 1
-90 -16 -23 -19 -23 -20 -7 -45 9 -15 43 -44 76 -66 88 -60 144 -131 213 -269
49 -99 71 -132 116 -173 88 -81 184 -119 332 -134 58 -6 216 7 263 21 16 5 17
-9 17 -201 0 -138 -4 -214 -12 -228 -42 -80 -127 -67 -387 58 -628 304 -1059
892 -1157 1581 -34 242 -18 548 41 784 165 655 629 1186 1255 1435 340 136
725 182 1084 130z"/>
</g>
</svg>
