<svg version="1" xmlns="http://www.w3.org/2000/svg" width="746.667" height="746.667" viewBox="0 0 560 560"><path d="M0 280v280h560V0H0v280zM309.4 77.5C394.6 90 462.7 151.1 483.5 234c6 23.7 7.6 54.1 4.1 78.4-9.7 67.8-51.6 125.9-113.1 156.8-11.7 5.9-29 12.8-32.1 12.8-3 0-8.1-3.1-9.3-5.6-.7-1.7-1.1-13.4-1.1-37.2 0-27.1-.4-36.1-1.5-41-1.7-7.1-5.2-14.5-9-19l-2.6-3.1 3.3-.5c28.3-4.6 42.5-9.6 57.4-20.2 17.6-12.4 28.9-33 32.8-59.5 4.6-31.2-.7-55.6-16.1-74.7l-3.5-4.2 1.8-6.8c3.4-12.9 1.9-33.4-3.3-46.1l-1.4-3.4-7.7.6c-11.7.9-28.8 7.6-44.2 17.5l-5.5 3.5-11-2.2c-17.5-3.4-23.9-4.1-42-4.1s-24.5.7-42 4.1l-11 2.2-5.5-3.5c-15.4-9.9-32.5-16.6-44.1-17.5-9-.7-8.6-1.1-12 11.7-2.9 11-3.1 27.4-.5 37.2l1.8 6.8-3.5 4.2c-15.4 19.1-20.7 43.5-16.1 74.7 4.1 28 16 48.4 35.8 61.5 9.2 6.1 16.6 9.5 29.3 13.1 7.2 2.1 24.2 5.5 27.6 5.5.5 0-.3 1.4-1.8 3.1-3.8 4.6-7.4 12.1-8.8 18.7l-1.3 5.7-6.5 2.2c-13 4.4-24.8 4-35.6-1.3-6.6-3.2-12.5-9-18.6-18.1-8.8-13.3-19.5-20.4-31.7-21.1-5.4-.3-7-.1-9 1.6-2.3 1.9-2.3 2-.7 4.5.9 1.5 4.3 4.4 7.6 6.6 8.8 6 14.4 13.1 21.3 26.9 4.9 9.9 7.1 13.2 11.6 17.3 8.8 8.1 18.4 11.9 33.2 13.4 5.8.6 21.6-.7 26.3-2.1 1.6-.5 1.7.9 1.7 20.1 0 13.8-.4 21.4-1.2 22.8-4.2 8-12.7 6.7-38.7-5.8-62.8-30.4-105.9-89.2-115.7-158.1-3.4-24.2-1.8-54.8 4.1-78.4C92 168.5 138.4 115.4 201 90.5c34-13.6 72.5-18.2 108.4-13z" fill="#161616"/></svg>