<?xml version="1.0" standalone="no"?>
<!DOCTYPE svg PUBLIC "-//W3C//DTD SVG 20010904//EN"
 "http://www.w3.org/TR/2001/REC-SVG-20010904/DTD/svg10.dtd">
<svg version="1.0" xmlns="http://www.w3.org/2000/svg"
 width="1172.000000pt" height="1118.000000pt" viewBox="0 0 1172.000000 1118.000000"
 preserveAspectRatio="xMidYMid meet">
<metadata>
Created by potrace 1.15, written by Peter Selinger 2001-2017
</metadata>
<g transform="translate(0.000000,1118.000000) scale(0.100000,-0.100000)"
fill="#161616" stroke="none">
<path d="M0 5590 l0 -5590 5860 0 5860 0 0 5590 0 5590 -5860 0 -5860 0 0
-5590z m3940 3115 c58 -20 113 -66 139 -117 13 -24 177 -515 365 -1093 l342
-1050 1074 -2 1075 -3 339 1048 c187 576 351 1069 365 1095 47 90 133 137 250
137 103 -1 198 -56 241 -139 10 -20 162 -480 338 -1021 176 -542 423 -1300
548 -1685 224 -687 228 -702 229 -785 0 -105 -13 -151 -68 -232 -45 -68 111
48 -2715 -2004 l-544 -394 -58 0 c-70 0 164 -164 -1805 1267 -1412 1026 -1472
1071 -1512 1131 -55 81 -68 127 -68 232 1 83 5 99 189 660 103 316 350 1074
547 1684 198 610 369 1126 379 1146 23 45 80 96 134 121 51 23 157 25 216 4z"/>
<path d="M3531 7379 c-166 -513 -300 -933 -298 -935 2 -2 276 -3 609 -2 l605
3 -301 927 c-166 510 -304 930 -307 933 -3 2 -141 -414 -308 -926z"/>
<path d="M7874 8295 c-3 -11 -139 -432 -303 -935 l-297 -915 605 -3 c332 -1
606 0 608 2 5 4 -595 1857 -603 1866 -3 2 -7 -5 -10 -15z"/>
<path d="M3347 6113 c-4 -7 2005 -2590 2046 -2630 9 -10 17 -13 16 -8 0 6
-193 602 -428 1325 l-428 1315 -601 3 c-330 1 -603 -1 -605 -5z"/>
<path d="M4900 6106 c0 -14 949 -2938 956 -2945 2 -2 6 -2 9 1 10 10 962 2948
957 2953 -3 3 -437 5 -964 5 -799 0 -958 -2 -958 -14z"/>
<path d="M7165 6108 c-12 -33 -855 -2629 -855 -2634 0 -4 7 -1 15 6 17 14
2048 2616 2053 2630 6 16 -1207 13 -1213 -2z"/>
<path d="M2961 5618 c-56 -172 -119 -363 -139 -425 -30 -93 -34 -116 -25 -136
8 -16 398 -306 1050 -780 1262 -917 1148 -835 1141 -815 -7 16 -1873 2415
-1908 2451 -17 18 -22 6 -119 -295z"/>
<path d="M7698 4709 c-525 -673 -958 -1230 -963 -1238 -6 -11 -4 -13 8 -8 16
6 2052 1481 2140 1549 20 16 40 40 43 53 4 15 -40 165 -126 432 -73 224 -136
414 -140 422 -5 9 -321 -389 -962 -1210z"/>
</g>
</svg>
