<svg version="1.0" xmlns="http://www.w3.org/2000/svg" width="1562.667" height="1490.667" viewBox="0 0 1172 1118"><g fill="#161616"><path d="M0 559v559h1172V0H0v559zm394-311.5c5.8 2 11.3 6.6 13.9 11.7 1.3 2.4 17.7 51.5 36.5 109.3l34.2 105 107.4.2 107.5.3 33.9-104.8c18.7-57.6 35.1-106.9 36.5-109.5 4.7-9 13.3-13.7 25-13.7 10.3.1 19.8 5.6 24.1 13.9 1 2 16.2 48 33.8 102.1 17.6 54.2 42.3 130 54.8 168.5 22.4 68.7 22.8 70.2 22.9 78.5 0 10.5-1.3 15.1-6.8 23.2-4.5 6.8 11.1-4.8-271.5 200.4L591.8 872H586c-7 0 16.4 16.4-180.5-126.7-141.2-102.6-147.2-107.1-151.2-113.1-5.5-8.1-6.8-12.7-6.8-23.2.1-8.3.5-9.9 18.9-66 10.3-31.6 35-107.4 54.7-168.4C340.9 313.6 358 262 359 260c2.3-4.5 8-9.6 13.4-12.1 5.1-2.3 15.7-2.5 21.6-.4z"/><path d="M353.1 380.1c-16.6 51.3-30 93.3-29.8 93.5.2.2 27.6.3 60.9.2l60.5-.3-30.1-92.7c-16.6-51-30.4-93-30.7-93.3-.3-.2-14.1 41.4-30.8 92.6zM787.4 288.5c-.3 1.1-13.9 43.2-30.3 93.5l-29.7 91.5 60.5.3c33.2.1 60.6 0 60.8-.2.5-.4-59.5-185.7-60.3-186.6-.3-.2-.7.5-1 1.5zM334.7 506.7c-.4.7 200.5 259 204.6 263 .9 1 1.7 1.3 1.6.8 0-.6-19.3-60.2-42.8-132.5l-42.8-131.5-60.1-.3c-33-.1-60.3.1-60.5.5zM490 507.4c0 1.4 94.9 293.8 95.6 294.5.2.2.6.2.9-.1 1-1 96.2-294.8 95.7-295.3-.3-.3-43.7-.5-96.4-.5-79.9 0-95.8.2-95.8 1.4zM716.5 507.2c-1.2 3.3-85.5 262.9-85.5 263.4 0 .4.7.1 1.5-.6 1.7-1.4 204.8-261.6 205.3-263 .6-1.6-120.7-1.3-121.3.2zM296.1 556.2c-5.6 17.2-11.9 36.3-13.9 42.5-3 9.3-3.4 11.6-2.5 13.6.8 1.6 39.8 30.6 105 78 126.2 91.7 114.8 83.5 114.1 81.5-.7-1.6-187.3-241.5-190.8-245.1-1.7-1.8-2.2-.6-11.9 29.5zM769.8 647.1c-52.5 67.3-95.8 123-96.3 123.8-.6 1.1-.4 1.3.8.8 1.6-.6 205.2-148.1 214-154.9 2-1.6 4-4 4.3-5.3.4-1.5-4-16.5-12.6-43.2-7.3-22.4-13.6-41.4-14-42.2-.5-.9-32.1 38.9-96.2 121z"/></g></svg>