<svg version="1" xmlns="http://www.w3.org/2000/svg" width="2218.667" height="2218.667" viewBox="0 0 1664.000000 1664.000000"><path d="M0 832v832h1664V0H0v832zm677.7-338c65.1 7.1 123.8 31.7 172.5 72.4 7 5.9 13 11.1 13.4 11.7.6 1-93.1 95.9-94.6 95.9-.3 0-3.6-2.7-7.5-6-48-41.2-117.2-53.8-180-32.9-73 24.3-126.2 91.3-134.6 169.4-1.4 13.2-.6 37.9 1.6 51.5 9.3 57 42 106.8 90.5 138.3 22.6 14.6 50.9 25.1 78 28.8 11.8 1.6 40.3 1.6 53 0 46.9-5.9 83.7-23.7 112-53.8 19-20.4 31.2-44.3 38.4-75.6l.6-2.7H642V758l156.2.2 156.2.3 1.3 7.5c9.8 57.6 6.5 118.3-9.2 172.5-25.8 88.8-85.4 157.2-167.6 192.3-41.1 17.6-85.5 26.3-134.9 26.4-23.8 0-36.8-1-56.8-4.3-142.2-23.6-253.3-137.2-274.1-280.4-9.7-66.3.2-131.3 29-191.3C393.8 573.3 497.8 502.5 618.6 493c12.9-1 45.4-.4 59.1 1zM1241 709v58h116v82l-58.1.2-58.2.3.2 58.2.2 58.3H1158V849h-116v-82h116V651h83v58z" fill="#161616"/></svg>