<?xml version="1.0" standalone="no"?>
<!DOCTYPE svg PUBLIC "-//W3C//DTD SVG 20010904//EN"
 "http://www.w3.org/TR/2001/REC-SVG-20010904/DTD/svg10.dtd">
<svg version="1.0" xmlns="http://www.w3.org/2000/svg"
 width="1664.000000pt" height="1664.000000pt" viewBox="0 0 1664.000000 1664.000000"
 preserveAspectRatio="xMidYMid meet">
<metadata>
Created by potrace 1.14, written by Peter Selinger 2001-2017
</metadata>
<g transform="translate(0.000000,1664.000000) scale(0.100000,-0.100000)"
fill="#161616" stroke="none">
<path d="M0 8320 l0 -8320 8320 0 8320 0 0 8320 0 8320 -8320 0 -8320 0 0
-8320z m6777 3380 c651 -71 1238 -317 1725 -724 70 -59 130 -111 134 -117 6
-10 -931 -959 -946 -959 -3 0 -36 27 -75 60 -480 412 -1172 538 -1800 329
-730 -243 -1262 -913 -1346 -1694 -14 -132 -6 -379 16 -515 93 -570 420 -1068
905 -1383 226 -146 509 -251 780 -288 118 -16 403 -16 530 0 469 59 837 237
1120 538 190 204 312 443 384 756 l6 27 -895 0 -895 0 0 665 0 665 1562 -2
1562 -3 13 -75 c98 -576 65 -1183 -92 -1725 -258 -888 -854 -1572 -1676 -1923
-411 -176 -855 -263 -1349 -264 -238 0 -368 10 -568 43 -1422 236 -2533 1372
-2741 2804 -97 663 2 1313 290 1913 517 1079 1557 1787 2765 1882 129 10 454
4 591 -10z m5633 -2150 l0 -580 580 0 580 0 0 -410 0 -410 -581 -2 -582 -3 2
-582 2 -583 -415 0 -416 0 0 585 0 585 -580 0 -580 0 0 410 0 410 580 0 580 0
0 580 0 580 415 0 415 0 0 -580z"/>
</g>
</svg>
