<?xml version="1.0" standalone="no"?>
<!DOCTYPE svg PUBLIC "-//W3C//DTD SVG 20010904//EN"
 "http://www.w3.org/TR/2001/REC-SVG-20010904/DTD/svg10.dtd">
<svg version="1.0" xmlns="http://www.w3.org/2000/svg"
 width="2000.000000pt" height="2000.000000pt" viewBox="0 0 2000.000000 2000.000000"
 preserveAspectRatio="xMidYMid meet">
<metadata>
Created by potrace 1.14, written by Peter Selinger 2001-2017
</metadata>
<g transform="translate(0.000000,2000.000000) scale(0.100000,-0.100000)"
fill="#161616" stroke="none">
<path d="M0 10000 l0 -10000 10000 0 10000 0 0 10000 0 10000 -10000 0 -10000
0 0 -10000z m11970 7260 c1237 -25 1726 -68 2254 -201 593 -149 1096 -391
1516 -730 924 -745 1393 -1766 1479 -3219 39 -656 51 -1357 51 -3110 0 -2627
-29 -3349 -161 -4000 -130 -642 -372 -1206 -713 -1655 -209 -275 -549 -607
-817 -797 -450 -319 -981 -538 -1599 -662 -454 -91 -934 -125 -2095 -147 -693
-13 -3932 -6 -4310 10 -710 30 -934 44 -1185 77 -775 100 -1429 340 -1970 723
-294 208 -664 578 -872 872 -435 616 -684 1376 -757 2314 -11 137 -24 403 -42
845 -6 147 -13 1041 -16 2010 -9 3223 25 3956 222 4694 190 715 507 1278 995
1766 501 500 1087 825 1826 1010 508 127 1056 177 2159 199 558 11 3482 12
4035 1z"/>
<path d="M8355 15959 c-660 -6 -1237 -25 -1535 -49 -546 -45 -966 -153 -1353
-346 -268 -134 -514 -331 -734 -588 -348 -407 -554 -954 -628 -1669 -19 -190
-42 -645 -55 -1112 -13 -469 -13 -3937 0 -4390 20 -691 41 -1046 81 -1320 67
-464 214 -891 417 -1210 109 -172 323 -409 507 -563 344 -288 816 -482 1390
-571 251 -39 425 -52 1115 -82 361 -16 3759 -24 4397 -10 1027 22 1398 48
1788 126 288 57 508 131 760 255 260 127 416 243 646 477 258 263 401 491 538
856 146 390 211 782 241 1462 25 570 30 1003 30 2765 0 2811 -23 3348 -170
3930 -70 277 -192 574 -321 782 -119 193 -354 456 -541 607 -319 256 -733 435
-1230 530 -427 82 -980 110 -2258 117 -1714 8 -2387 9 -3085 3z m5703 -1225
c165 -33 311 -113 437 -239 128 -128 206 -273 241 -444 30 -150 13 -337 -45
-492 -127 -338 -503 -573 -869 -544 -379 30 -685 286 -783 656 -31 117 -31
309 0 424 87 325 342 569 666 638 93 20 257 21 353 1z m-3573 -1033 c1047
-142 1948 -688 2571 -1557 305 -426 536 -990 623 -1515 40 -245 46 -330 46
-629 0 -299 -7 -388 -46 -625 -178 -1067 -826 -2014 -1760 -2575 -443 -266
-914 -429 -1454 -503 -216 -29 -686 -31 -900 -4 -844 109 -1573 457 -2169
1036 -1156 1125 -1457 2867 -745 4316 265 541 666 1017 1160 1377 539 393
1180 632 1864 697 168 16 637 6 810 -18z"/>
<path d="M9814 12420 c-542 -45 -1053 -267 -1444 -626 -361 -331 -601 -732
-720 -1199 -88 -345 -98 -722 -29 -1070 193 -967 966 -1731 1935 -1910 577
-107 1178 -1 1674 294 655 391 1079 1038 1181 1801 16 122 16 446 0 575 -96
762 -525 1417 -1183 1807 -279 165 -610 277 -933 317 -121 15 -368 21 -481 11z"/>
</g>
</svg>
