<svg version="1" xmlns="http://www.w3.org/2000/svg" width="2666.667" height="2666.667" viewBox="0 0 2000.000000 2000.000000"><g fill="#161616"><path d="M0 1000v1000h2000V0H0v1000zm1197-726c123.7 2.5 172.6 6.8 225.4 20.1 59.3 14.9 109.6 39.1 151.6 73 92.4 74.5 139.3 176.6 147.9 321.9 3.9 65.6 5.1 135.7 5.1 311 0 262.7-2.9 334.9-16.1 400-13 64.2-37.2 120.6-71.3 165.5-20.9 27.5-54.9 60.7-81.7 79.7-45 31.9-98.1 53.8-159.9 66.2-45.4 9.1-93.4 12.5-209.5 14.7-69.3 1.3-393.2.6-431-1-71-3-93.4-4.4-118.5-7.7-77.5-10-142.9-34-197-72.3-29.4-20.8-66.4-57.8-87.2-87.2-43.5-61.6-68.4-137.6-75.7-231.4-1.1-13.7-2.4-40.3-4.2-84.5-.6-14.7-1.3-104.1-1.6-201-.9-322.3 2.5-395.6 22.2-469.4 19-71.5 50.7-127.8 99.5-176.6 50.1-50 108.7-82.5 182.6-101 50.8-12.7 105.6-17.7 215.9-19.9 55.8-1.1 348.2-1.2 403.5-.1z"/><path d="M835.5 404.1c-66 .6-123.7 2.5-153.5 4.9-54.6 4.5-96.6 15.3-135.3 34.6-26.8 13.4-51.4 33.1-73.4 58.8-34.8 40.7-55.4 95.4-62.8 166.9-1.9 19-4.2 64.5-5.5 111.2-1.3 46.9-1.3 393.7 0 439 2 69.1 4.1 104.6 8.1 132 6.7 46.4 21.4 89.1 41.7 121 10.9 17.2 32.3 40.9 50.7 56.3 34.4 28.8 81.6 48.2 139 57.1 25.1 3.9 42.5 5.2 111.5 8.2 36.1 1.6 375.9 2.4 439.7 1 102.7-2.2 139.8-4.8 178.8-12.6 28.8-5.7 50.8-13.1 76-25.5 26-12.7 41.6-24.3 64.6-47.7 25.8-26.3 40.1-49.1 53.8-85.6 14.6-39 21.1-78.2 24.1-146.2 2.5-57 3-100.3 3-276.5 0-281.1-2.3-334.8-17-393-7-27.7-19.2-57.4-32.1-78.2-11.9-19.3-35.4-45.6-54.1-60.7-31.9-25.6-73.3-43.5-123-53-42.7-8.2-98-11-225.8-11.7-171.4-.8-238.7-.9-308.5-.3zm570.3 122.5c16.5 3.3 31.1 11.3 43.7 23.9 12.8 12.8 20.6 27.3 24.1 44.4 3 15 1.3 33.7-4.5 49.2-12.7 33.8-50.3 57.3-86.9 54.4-37.9-3-68.5-28.6-78.3-65.6-3.1-11.7-3.1-30.9 0-42.4 8.7-32.5 34.2-56.9 66.6-63.8 9.3-2 25.7-2.1 35.3-.1zm-357.3 103.3c104.7 14.2 194.8 68.8 257.1 155.7 30.5 42.6 53.6 99 62.3 151.5 4 24.5 4.6 33 4.6 62.9s-.7 38.8-4.6 62.5c-17.8 106.7-82.6 201.4-176 257.5-44.3 26.6-91.4 42.9-145.4 50.3-21.6 2.9-68.6 3.1-90 .4-84.4-10.9-157.3-45.7-216.9-103.6-115.6-112.5-145.7-286.7-74.5-431.6 26.5-54.1 66.6-101.7 116-137.7 53.9-39.3 118-63.2 186.4-69.7 16.8-1.6 63.7-.6 81 1.8z"/><path d="M981.4 758c-54.2 4.5-105.3 26.7-144.4 62.6-36.1 33.1-60.1 73.2-72 119.9-8.8 34.5-9.8 72.2-2.9 107 19.3 96.7 96.6 173.1 193.5 191 57.7 10.7 117.8.1 167.4-29.4 65.5-39.1 107.9-103.8 118.1-180.1 1.6-12.2 1.6-44.6 0-57.5-9.6-76.2-52.5-141.7-118.3-180.7-27.9-16.5-61-27.7-93.3-31.7-12.1-1.5-36.8-2.1-48.1-1.1z"/></g></svg>