<?xml version="1.0" standalone="no"?>
<!DOCTYPE svg PUBLIC "-//W3C//DTD SVG 20010904//EN"
 "http://www.w3.org/TR/2001/REC-SVG-20010904/DTD/svg10.dtd">
<svg version="1.0" xmlns="http://www.w3.org/2000/svg"
 width="1024.000000pt" height="1024.000000pt" viewBox="0 0 1024.000000 1024.000000"
 preserveAspectRatio="xMidYMid meet">
<metadata>
Created by potrace 1.15, written by Peter Selinger 2001-2017
</metadata>
<g transform="translate(0.000000,1024.000000) scale(0.100000,-0.100000)"
fill="#000000" stroke="none">
<path d="M585 10191 c-142 -38 -256 -104 -357 -208 -122 -126 -182 -260 -199
-448 -6 -72 -9 -1626 -7 -4495 3 -4223 4 -4387 22 -4450 63 -223 202 -390 410
-491 156 -76 -290 -70 4696 -67 l4475 3 65 23 c261 95 435 277 507 532 17 63
18 233 21 4450 2 2869 -1 4423 -7 4495 -7 69 -20 139 -37 188 -69 203 -247
376 -469 454 l-80 28 -4485 2 c-4330 2 -4487 1 -4555 -16z m1883 -1397 c277
-57 509 -242 628 -500 98 -210 104 -466 17 -682 -79 -199 -224 -359 -413 -456
-261 -135 -548 -135 -811 0 -399 206 -575 689 -404 1111 86 214 283 407 496
487 149 56 336 71 487 40z m4732 -2295 c404 -39 738 -178 971 -404 293 -284
441 -650 516 -1285 15 -130 17 -307 20 -1708 l4 -1562 -761 0 -760 0 0 1348
c0 880 -4 1386 -11 1458 -46 478 -211 728 -538 816 -93 25 -324 30 -441 9
-372 -66 -588 -312 -664 -759 -32 -182 -36 -362 -36 -1614 l0 -1258 -755 0
-755 0 2 2428 3 2427 720 0 720 0 3 -332 c2 -287 4 -333 17 -333 8 0 15 4 15
9 0 5 27 49 59 98 218 324 588 561 1006 643 189 37 410 43 665 19z m-4152
-2531 l2 -2428 -755 0 -755 0 0 2430 0 2430 753 -2 752 -3 3 -2427z"/>
</g>
</svg>
