<?xml version="1.0" standalone="no"?>
<!DOCTYPE svg PUBLIC "-//W3C//DTD SVG 20010904//EN"
 "http://www.w3.org/TR/2001/REC-SVG-20010904/DTD/svg10.dtd">
<svg version="1.0" xmlns="http://www.w3.org/2000/svg"
 width="318.000000pt" height="318.000000pt" viewBox="0 0 318.000000 318.000000"
 preserveAspectRatio="xMidYMid meet">
<metadata>
Created by potrace 1.15, written by Peter Selinger 2001-2017
</metadata>
<g transform="translate(0.000000,318.000000) scale(0.100000,-0.100000)"
fill="#161616" stroke="none">
<path d="M0 1590 l0 -1590 1590 0 1590 0 0 1590 0 1590 -1590 0 -1590 0 0
-1590z m1284 676 c75 -31 125 -118 112 -195 -8 -52 -52 -110 -99 -132 -116
-52 -245 21 -255 145 -11 135 120 233 242 182z m771 -5 c175 -81 119 -341 -72
-341 -58 0 -120 35 -149 86 -90 153 62 328 221 255z m-1077 -662 c59 -20 84
-91 53 -152 l-19 -38 26 -31 c75 -90 182 -156 322 -200 66 -20 95 -23 235 -23
138 0 171 3 240 23 119 35 225 95 297 169 59 62 60 64 44 88 -65 99 62 226
151 151 31 -26 256 -410 268 -457 9 -38 -18 -95 -54 -113 -70 -37 -120 -9
-185 103 -26 45 -49 81 -52 81 -3 0 -22 -16 -42 -36 -89 -86 -235 -163 -392
-205 -74 -20 -110 -23 -270 -24 -163 0 -195 3 -269 23 -157 43 -277 105 -388
199 l-52 44 -14 -23 c-8 -13 -31 -51 -51 -86 -52 -87 -102 -110 -166 -77 -38
20 -64 69 -57 109 5 30 222 412 255 450 31 35 70 43 120 25z"/>
</g>
</svg>
