<svg version="1" xmlns="http://www.w3.org/2000/svg" width="424" height="424" viewBox="0 0 318 318"><path d="M0 159v159h318V0H0v159zm128.4-67.6c7.5 3.1 12.5 11.8 11.2 19.5-.8 5.2-5.2 11-9.9 13.2-11.6 5.2-24.5-2.1-25.5-14.5-1.1-13.5 12-23.3 24.2-18.2zm77.1.5c17.5 8.1 11.9 34.1-7.2 34.1-5.8 0-12-3.5-14.9-8.6-9-15.3 6.2-32.8 22.1-25.5zM97.8 158.1c5.9 2 8.4 9.1 5.3 15.2l-1.9 3.8 2.6 3.1c7.5 9 18.2 15.6 32.2 20 6.6 2 9.5 2.3 23.5 2.3 13.8 0 17.1-.3 24-2.3 11.9-3.5 22.5-9.5 29.7-16.9 5.9-6.2 6-6.4 4.4-8.8-6.5-9.9 6.2-22.6 15.1-15.1 3.1 2.6 25.6 41 26.8 45.7.9 3.8-1.8 9.5-5.4 11.3-7 3.7-12 .9-18.5-10.3-2.6-4.5-4.9-8.1-5.2-8.1-.3 0-2.2 1.6-4.2 3.6-8.9 8.6-23.5 16.3-39.2 20.5-7.4 2-11 2.3-27 2.4-16.3 0-19.5-.3-26.9-2.3-15.7-4.3-27.7-10.5-38.8-19.9l-5.2-4.4-1.4 2.3c-.8 1.3-3.1 5.1-5.1 8.6-5.2 8.7-10.2 11-16.6 7.7-3.8-2-6.4-6.9-5.7-10.9.5-3 22.2-41.2 25.5-45 3.1-3.5 7-4.3 12-2.5z" fill="#161616"/></svg>