<?xml version="1.0" standalone="no"?>
<!DOCTYPE svg PUBLIC "-//W3C//DTD SVG 20010904//EN"
 "http://www.w3.org/TR/2001/REC-SVG-20010904/DTD/svg10.dtd">
<svg version="1.0" xmlns="http://www.w3.org/2000/svg"
 width="180.000000pt" height="180.000000pt" viewBox="0 0 180.000000 180.000000"
 preserveAspectRatio="xMidYMid meet">
<metadata>
Created by potrace 1.15, written by Peter Selinger 2001-2017
</metadata>
<g transform="translate(0.000000,180.000000) scale(0.100000,-0.100000)"
fill="#161616" stroke="none">
<path d="M0 900 l0 -900 900 0 900 0 0 900 0 900 -900 0 -900 0 0 -900z m819
205 c40 -69 76 -125 80 -125 4 0 41 56 82 125 l74 124 98 1 97 0 0 -325 0
-325 -90 0 -90 0 -2 188 -3 187 -65 -112 c-63 -110 -66 -113 -100 -113 -34 0
-37 3 -100 113 l-65 112 -3 -187 -2 -188 -90 0 -90 0 0 325 0 325 98 0 97 0
74 -125z"/>
</g>
</svg>
