<?xml version="1.0" standalone="no"?>
<!DOCTYPE svg PUBLIC "-//W3C//DTD SVG 20010904//EN"
 "http://www.w3.org/TR/2001/REC-SVG-20010904/DTD/svg10.dtd">
<svg version="1.0" xmlns="http://www.w3.org/2000/svg"
 width="4266.000000pt" height="4266.000000pt" viewBox="0 0 4266.000000 4266.000000"
 preserveAspectRatio="xMidYMid meet">
<metadata>
Created by potrace 1.14, written by Peter Selinger 2001-2017
</metadata>
<g transform="translate(0.000000,4266.000000) scale(0.100000,-0.100000)"
fill="#161616" stroke="none">
<path d="M0 21330 l0 -21330 21330 0 21330 0 0 21330 0 21330 -21330 0 -21330
0 0 -21330z m21835 15980 c1849 -118 3544 -819 4945 -2044 154 -135 513 -489
664 -656 1142 -1260 1865 -2830 2075 -4505 42 -332 53 -507 58 -918 7 -539
-10 -826 -78 -1302 -229 -1613 -945 -3130 -2052 -4353 -145 -160 -516 -527
-667 -658 -1262 -1103 -2779 -1788 -4415 -1993 -389 -49 -506 -55 -1035 -55
-529 0 -646 6 -1035 55 -1678 210 -3254 937 -4510 2079 -169 154 -512 502
-651 660 -1066 1215 -1748 2691 -1974 4270 -59 415 -80 719 -80 1180 0 462 21
764 81 1184 300 2106 1420 4022 3124 5347 1291 1003 2869 1600 4515 1708 184
12 851 13 1035 1z m-6960 -16809 c362 -65 581 -152 965 -383 401 -241 666
-386 992 -539 1257 -593 2564 -923 3953 -999 245 -13 859 -13 1096 0 1481 84
2856 449 4157 1105 280 141 525 277 757 421 229 142 432 241 615 301 293 96
518 129 833 120 375 -10 680 -85 1007 -248 262 -131 445 -265 655 -481 383
-391 614 -879 676 -1427 18 -157 7 -505 -21 -660 -91 -515 -313 -945 -675
-1307 -175 -175 -325 -285 -687 -501 -1118 -669 -2218 -1159 -3458 -1539 -265
-81 -660 -189 -914 -249 l-158 -37 2374 -2377 c1518 -1518 2399 -2407 2440
-2461 280 -365 453 -794 499 -1238 17 -166 7 -496 -20 -647 -93 -520 -313
-948 -676 -1310 -563 -563 -1335 -808 -2125 -674 -396 67 -769 236 -1110 504
-49 39 -1054 1037 -2403 2387 l-2317 2321 -2203 -2208 c-1211 -1215 -2269
-2270 -2350 -2346 -224 -209 -387 -325 -617 -439 -220 -110 -422 -176 -677
-222 -113 -20 -159 -23 -403 -23 -245 0 -289 3 -405 24 -508 91 -952 324
-1315 690 -373 376 -604 853 -675 1394 -17 137 -20 422 -4 565 47 439 237 896
517 1247 30 39 1120 1135 2421 2437 1301 1302 2363 2369 2360 2372 -3 3 -140
39 -304 80 -1110 279 -2101 643 -3115 1147 -605 300 -1268 680 -1540 882 -127
94 -378 347 -474 477 -253 341 -408 726 -467 1160 -7 52 -13 185 -13 295 0
110 6 243 13 295 74 545 309 1026 686 1406 134 135 231 215 383 316 312 206
652 332 1028 382 164 22 541 15 699 -13z"/>
<path d="M21115 32483 c-1061 -70 -2034 -632 -2626 -1515 -296 -442 -480 -929
-554 -1468 -23 -161 -31 -535 -16 -712 58 -683 312 -1317 747 -1863 113 -141
378 -406 519 -519 502 -400 1078 -645 1725 -733 191 -26 648 -26 840 0 656 89
1195 318 1732 737 111 87 416 392 510 510 403 509 644 1071 733 1710 25 178
31 581 11 767 -29 270 -71 475 -148 713 -216 668 -632 1257 -1184 1677 -241
183 -608 386 -879 486 -450 166 -949 241 -1410 210z"/>
</g>
</svg>
