<svg version="1" xmlns="http://www.w3.org/2000/svg" width="5688" height="5688" viewBox="0 0 4266.000000 4266.000000"><g fill="#161616"><path d="M0 2133v2133h4266V0H0v2133zM2183.5 535c184.9 11.8 354.4 81.9 494.5 204.4 15.4 13.5 51.3 48.9 66.4 65.6 114.2 126 186.5 283 207.5 450.5 4.2 33.2 5.3 50.7 5.8 91.8.7 53.9-1 82.6-7.8 130.2-22.9 161.3-94.5 313-205.2 435.3-14.5 16-51.6 52.7-66.7 65.8-126.2 110.3-277.9 178.8-441.5 199.3-38.9 4.9-50.6 5.5-103.5 5.5s-64.6-.6-103.5-5.5c-167.8-21-325.4-93.7-451-207.9-16.9-15.4-51.2-50.2-65.1-66-106.6-121.5-174.8-269.1-197.4-427-5.9-41.5-8-71.9-8-118 0-46.2 2.1-76.4 8.1-118.4 30-210.6 142-402.2 312.4-534.7 129.1-100.3 286.9-160 451.5-170.8 18.4-1.2 85.1-1.3 103.5-.1zm-696 1680.9c36.2 6.5 58.1 15.2 96.5 38.3 40.1 24.1 66.6 38.6 99.2 53.9 125.7 59.3 256.4 92.3 395.3 99.9 24.5 1.3 85.9 1.3 109.6 0 148.1-8.4 285.6-44.9 415.7-110.5 28-14.1 52.5-27.7 75.7-42.1 22.9-14.2 43.2-24.1 61.5-30.1 29.3-9.6 51.8-12.9 83.3-12 37.5 1 68 8.5 100.7 24.8 26.2 13.1 44.5 26.5 65.5 48.1 38.3 39.1 61.4 87.9 67.6 142.7 1.8 15.7.7 50.5-2.1 66-9.1 51.5-31.3 94.5-67.5 130.7-17.5 17.5-32.5 28.5-68.7 50.1-111.8 66.9-221.8 115.9-345.8 153.9-26.5 8.1-66 18.9-91.4 24.9l-15.8 3.7 237.4 237.7c151.8 151.8 239.9 240.7 244 246.1 28 36.5 45.3 79.4 49.9 123.8 1.7 16.6.7 49.6-2 64.7-9.3 52-31.3 94.8-67.6 131-56.3 56.3-133.5 80.8-212.5 67.4-39.6-6.7-76.9-23.6-111-50.4-4.9-3.9-105.4-103.7-240.3-238.7L2133 3207.7l-220.3 220.8c-121.1 121.5-226.9 227-235 234.6-22.4 20.9-38.7 32.5-61.7 43.9-22 11-42.2 17.6-67.7 22.2-11.3 2-15.9 2.3-40.3 2.3-24.5 0-28.9-.3-40.5-2.4-50.8-9.1-95.2-32.4-131.5-69-37.3-37.6-60.4-85.3-67.5-139.4-1.7-13.7-2-42.2-.4-56.5 4.7-43.9 23.7-89.6 51.7-124.7 3-3.9 112-113.5 242.1-243.7s236.3-236.9 236-237.2c-.3-.3-14-3.9-30.4-8-111-27.9-210.1-64.3-311.5-114.7-60.5-30-126.8-68-154-88.2-12.7-9.4-37.8-34.7-47.4-47.7-25.3-34.1-40.8-72.6-46.7-116-.7-5.2-1.3-18.5-1.3-29.5s.6-24.3 1.3-29.5c7.4-54.5 30.9-102.6 68.6-140.6 13.4-13.5 23.1-21.5 38.3-31.6 31.2-20.6 65.2-33.2 102.8-38.2 16.4-2.2 54.1-1.5 69.9 1.3z"/><path d="M2111.5 1017.7c-106.1 7-203.4 63.2-262.6 151.5-29.6 44.2-48 92.9-55.4 146.8-2.3 16.1-3.1 53.5-1.6 71.2 5.8 68.3 31.2 131.7 74.7 186.3 11.3 14.1 37.8 40.6 51.9 51.9 50.2 40 107.8 64.5 172.5 73.3 19.1 2.6 64.8 2.6 84 0 65.6-8.9 119.5-31.8 173.2-73.7 11.1-8.7 41.6-39.2 51-51 40.3-50.9 64.4-107.1 73.3-171 2.5-17.8 3.1-58.1 1.1-76.7-2.9-27-7.1-47.5-14.8-71.3-21.6-66.8-63.2-125.7-118.4-167.7-24.1-18.3-60.8-38.6-87.9-48.6-45-16.6-94.9-24.1-141-21z"/></g></svg>