<?xml version="1.0" standalone="no"?>
<!DOCTYPE svg PUBLIC "-//W3C//DTD SVG 20010904//EN"
 "http://www.w3.org/TR/2001/REC-SVG-20010904/DTD/svg10.dtd">
<svg version="1.0" xmlns="http://www.w3.org/2000/svg"
 width="320.000000pt" height="320.000000pt" viewBox="0 0 320.000000 320.000000"
 preserveAspectRatio="xMidYMid meet">
<metadata>
Created by potrace 1.15, written by Peter Selinger 2001-2017
</metadata>
<g transform="translate(0.000000,320.000000) scale(0.100000,-0.100000)"
fill="#161616" stroke="none">
<path d="M0 1600 l0 -1600 1600 0 1600 0 0 1600 0 1600 -1600 0 -1600 0 0
-1600z m1060 0 l0 -810 -155 0 -155 0 0 810 0 810 155 0 155 0 0 -810z m955
761 c247 -83 401 -302 399 -566 -1 -114 -11 -160 -61 -264 -44 -92 -158 -210
-248 -258 -174 -91 -368 -94 -540 -9 -369 183 -450 664 -161 952 78 77 134
114 221 145 128 45 258 45 390 0z"/>
</g>
</svg>
