<svg version="1.0" xmlns="http://www.w3.org/2000/svg" width="1333.333" height="1638.667" viewBox="0 0 1000 1229"><path d="M107 1.5C78.9 6.2 53.9 19.6 34.6 40c-13 13.9-22 29-28.1 47.4C-.6 108.6-.1 62.9.3 619.5c.3 470.1.4 502.4 2 508.8 2.8 11.4 6.6 21.7 11.2 31 17.9 35.9 54.2 62.6 93.5 68.6 5.6.9 105 1.1 397.5.9l390-.3 7.5-2.2c12.6-3.6 18.5-5.9 28.7-11.2 34.9-18 58.9-50.4 67-90.6 1.7-8.6 1.8-27.1 1.8-425 0-336.8-.2-417.2-1.3-422.5-3.6-17.9-10.5-32.7-22.3-48-6.3-8.2-190.9-190-201.8-198.8-19.4-15.7-44-26.1-68.6-29.1C691.6-.6 117.1-.2 107 1.5zm601.2 42.2c12.4 2.8 21.3 6.5 32.3 13.7 7.1 4.7 18.5 15.3 61.4 57.4 28.9 28.5 71.4 70.2 94.4 92.7 48.9 48 55.3 55.5 59.4 70.5 1.7 6.2 1.8 27.5 2 418.5.3 449.9.7 420.4-5.2 436.2-8.1 21.5-27.4 41.1-48.5 49.2-17 6.6 14.9 6.1-408 5.9-370.5-.3-383.7-.4-390-2.2-8.1-2.3-21.4-8.4-27.4-12.5-16.8-11.6-29.3-29.6-34.9-50.4l-2.2-8.2-.3-491c-.2-332.6.1-494.8.8-502.6 1.2-13.9 3.6-22.4 9.7-34 13-24.9 38.6-42.1 66.4-44.8 4.6-.5 137.1-.8 294.4-.7l286 .2 9.7 2.1z"/><path d="M463.5 238.3c-10.5 3.5-17.7 10.6-21.2 20.8-6.3 18.1-5.4 54.4 2.3 91.6 2.9 14.2 5.8 24.2 14.1 47.8l6 17-12.2 32c-17.9 46.8-30.3 76.4-53.2 126.5l-9.8 21.5-36 18c-38.5 19.3-49.4 25.3-67.5 37.6-27.6 18.7-42.6 35.8-46 52.5-2.9 13.8 6.5 29.9 20.7 35.5 4.9 2 7.6 2.3 17.8 2.3 10.3 0 13.2-.4 20.5-2.8 19.5-6.4 33.2-15.7 53-36.2 18.8-19.4 35.3-41.1 56-73.4 6.1-9.6 13.5-20.8 16.3-25l5.2-7.5 21.5-7.2c34.9-11.6 68.9-20.5 112.3-29.3l5.8-1.2 5.2 4.9c25 23.5 60.4 43.1 93.2 51.3 15 3.8 24.3 5 39.3 5 25.6-.1 42.1-6.7 49.6-20 2.9-5.1 3.1-6.2 3-15-.1-12.9-2.5-19.1-10.8-27.4-21.5-21.7-66.9-27.1-145.1-17.1-15 1.9-28 3.5-28.9 3.5-2.6 0-46.9-56-61.2-77.5-8.9-13.2-17.4-27.8-17.4-29.8 0-1 3.4-14.7 7.5-30.5 12.3-47.5 15.7-67.9 15.9-95.7.1-18.9-1.1-28-5.3-40-6.9-20.1-21.1-32-39.6-33.1-4.3-.2-8.6.1-11 .9zm18.3 17.1c8.8 5.9 10.7 13 9.9 37-.5 17.1-3.7 37.4-9.6 62.7-3.1 13-10.5 38.9-11.2 38.9-.9 0-11.6-35.3-13.8-45.5-6.5-29.6-8.5-62.5-4.7-75 2.6-8.8 6.6-15.5 11.1-18.8 3.4-2.5 4.7-2.8 9-2.5 3.3.3 6.4 1.4 9.3 3.2zm28.1 228.8c13.3 18.7 20 27.2 38.9 49.7 9.5 11.5 11.3 14.1 9.5 14.1-.5 0-10.7 2.1-22.8 4.6-28.7 6-47 10.7-74.4 19.3-12.4 3.9-22.6 6.9-22.8 6.8-.2-.2 1-2.8 2.6-5.8 6.1-11.2 36.7-88.6 43.5-109.9 1.5-4.7 3-9.1 3.2-9.9.3-.8 2.2 1.5 4.7 5.5 2.4 3.8 10.3 15.3 17.6 25.6zm184.3 66.6c19.1 5.1 28.8 14.6 28.8 28.1-.1 7.4-2.6 12.7-8.5 17.9-12.1 10.7-28.2 9.3-65.3-5.4-22.1-8.8-37.5-16.5-52.4-26.5-14.1-9.4-13.3-8.8-12.7-9.3.6-.6 21.1-3.4 41.4-5.6 23.3-2.6 57.3-2.2 68.7.8zm-319.8 67.4c-20.8 34.6-50.5 72.7-69.9 90-11.6 10.2-26.7 17.9-35.6 18.1-5.5.1-10-2.3-14.3-7.6-2.8-3.5-3.1-4.6-3.1-10.6 0-5.9.4-7.4 3.5-12.4 8.1-13.3 27.7-29.5 55-45.3 8.5-4.9 62.8-33 64.3-33.3.5 0 .5.5.1 1.1zM298 958.9v94.1h31v-73h9.3c13.3 0 31.9-1.7 39-3.6 22.6-5.8 36.7-26.5 36.7-53.9 0-22.5-11-43.1-27-50.8-10.7-5.1-17.5-5.9-54.7-6.4l-34.3-.5v94.1zm68.1-67.2c9.6 4.3 15.1 15.3 15.1 30.1 0 12.1-2.2 19.3-7.7 24.7-6 6.1-12.6 7.8-30 7.9l-14 .1-.3-31.5c-.1-17.3 0-32.1.3-32.9.4-1.1 3.5-1.3 16.3-.9 13.1.3 16.5.8 20.3 2.5zM438 959v94.2l31.8-.4c28.6-.4 32.5-.7 39.6-2.6 10.4-2.9 16.8-5.9 24.2-11.6 18.8-14.1 29.9-38.7 32.4-71.1 2.3-29.9-5-58.5-19.5-76.8-5.8-7.2-15.9-14.8-25-18.6-13.2-5.5-19.2-6.3-52.7-6.8l-30.8-.5V959zm58.3-67.5c13.5 3.5 23 11.3 29.1 23.8 4.6 9.4 6.4 16.5 7.8 31.5 2.8 28.8-4.1 56-17.3 69.2-8.6 8.6-18.6 12-35.6 12H469V890h10.8c6.3 0 13.1.6 16.5 1.5zM597 959v94h31v-82h58v-25h-58v-56h73v-25H597v94z"/></svg>