<?xml version="1.0" standalone="no"?>
<!DOCTYPE svg PUBLIC "-//W3C//DTD SVG 20010904//EN"
 "http://www.w3.org/TR/2001/REC-SVG-20010904/DTD/svg10.dtd">
<svg version="1.0" xmlns="http://www.w3.org/2000/svg"
 width="1000.000000pt" height="1229.000000pt" viewBox="0 0 1000.000000 1229.000000"
 preserveAspectRatio="xMidYMid meet">
<metadata>
Created by potrace 1.15, written by Peter Selinger 2001-2017
</metadata>
<g transform="translate(0.000000,1229.000000) scale(0.100000,-0.100000)"
fill="#000000" stroke="none">
<path d="M1070 12275 c-281 -47 -531 -181 -724 -385 -130 -139 -220 -290 -281
-474 -71 -212 -66 245 -62 -5321 3 -4701 4 -5024 20 -5088 28 -114 66 -217
112 -310 179 -359 542 -626 935 -686 56 -9 1050 -11 3975 -9 l3900 3 75 22
c126 36 185 59 287 112 349 180 589 504 670 906 17 86 18 271 18 4250 0 3368
-2 4172 -13 4225 -36 179 -105 327 -223 480 -63 82 -1909 1900 -2018 1988
-194 157 -440 261 -686 291 -139 17 -5884 13 -5985 -4z m6012 -422 c124 -28
213 -65 323 -137 71 -47 185 -153 614 -574 289 -285 714 -702 944 -927 489
-480 553 -555 594 -705 17 -62 18 -275 20 -4185 3 -4499 7 -4204 -52 -4362
-81 -215 -274 -411 -485 -492 -170 -66 149 -61 -4080 -59 -3705 3 -3837 4
-3900 22 -81 23 -214 84 -274 125 -168 116 -293 296 -349 504 l-22 82 -3 4910
c-2 3326 1 4948 8 5026 12 139 36 224 97 340 130 249 386 421 664 448 46 5
1371 8 2944 7 l2860 -2 97 -21z"/>
<path d="M4635 9907 c-105 -35 -177 -106 -212 -208 -63 -181 -54 -544 23 -916
29 -142 58 -242 141 -478 l60 -170 -122 -320 c-179 -468 -303 -764 -532 -1265
l-98 -215 -360 -180 c-385 -193 -494 -253 -675 -376 -276 -187 -426 -358 -460
-525 -29 -138 65 -299 207 -355 49 -20 76 -23 178 -23 103 0 132 4 205 28 195
64 332 157 530 362 188 194 353 411 560 734 61 96 135 208 163 250 l52 75 215
72 c349 116 689 205 1123 293 l58 12 52 -49 c250 -235 604 -431 932 -513 150
-38 243 -50 393 -50 256 1 421 67 496 200 29 51 31 62 30 150 -1 129 -25 191
-108 274 -215 217 -669 271 -1451 171 -150 -19 -280 -35 -289 -35 -26 0 -469
560 -612 775 -89 132 -174 278 -174 298 0 10 34 147 75 305 123 475 157 679
159 957 1 189 -11 280 -53 400 -69 201 -211 320 -396 331 -43 2 -86 -1 -110
-9z m183 -171 c88 -59 107 -130 99 -370 -5 -171 -37 -374 -96 -627 -31 -130
-105 -389 -112 -389 -9 0 -116 353 -138 455 -65 296 -85 625 -47 750 26 88 66
155 111 188 34 25 47 28 90 25 33 -3 64 -14 93 -32z m281 -2288 c133 -187 200
-272 389 -497 95 -115 113 -141 95 -141 -5 0 -107 -21 -228 -46 -287 -60 -470
-107 -744 -193 -124 -39 -226 -69 -228 -68 -2 2 10 28 26 58 61 112 367 886
435 1099 15 47 30 91 32 99 3 8 22 -15 47 -55 24 -38 103 -153 176 -256z
m1843 -666 c191 -51 288 -146 288 -281 -1 -74 -26 -127 -85 -179 -121 -107
-282 -93 -653 54 -221 88 -375 165 -524 265 -141 94 -133 88 -127 93 6 6 211
34 414 56 233 26 573 22 687 -8z m-3198 -674 c-208 -346 -505 -727 -699 -900
-116 -102 -267 -179 -356 -181 -55 -1 -100 23 -143 76 -28 35 -31 46 -31 106
0 59 4 74 35 124 81 133 277 295 550 453 85 49 628 330 643 333 5 0 5 -5 1
-11z"/>
<path d="M2980 2701 l0 -941 155 0 155 0 0 365 0 365 93 0 c133 0 319 17 390
36 226 58 367 265 367 539 0 225 -110 431 -270 508 -107 51 -175 59 -547 64
l-343 5 0 -941z m681 672 c96 -43 151 -153 151 -301 0 -121 -22 -193 -77 -247
-60 -61 -126 -78 -300 -79 l-140 -1 -3 315 c-1 173 0 321 3 329 4 11 35 13
163 9 131 -3 165 -8 203 -25z"/>
<path d="M4380 2700 l0 -942 318 4 c286 4 325 7 396 26 104 29 168 59 242 116
188 141 299 387 324 711 23 299 -50 585 -195 768 -58 72 -159 148 -250 186
-132 55 -192 63 -527 68 l-308 5 0 -942z m583 675 c135 -35 230 -113 291 -238
46 -94 64 -165 78 -315 28 -288 -41 -560 -173 -692 -86 -86 -186 -120 -356
-120 l-113 0 0 690 0 690 108 0 c63 0 131 -6 165 -15z"/>
<path d="M5970 2700 l0 -940 155 0 155 0 0 410 0 410 290 0 290 0 0 125 0 125
-290 0 -290 0 0 280 0 280 365 0 365 0 0 125 0 125 -520 0 -520 0 0 -940z"/>
</g>
</svg>
