<svg version="1" xmlns="http://www.w3.org/2000/svg" width="1161.333" height="200" viewBox="0 0 871.000000 150.000000"><g fill="#161616"><path d="M68.8 28.7l-9.5 27.8-29.1.5-29.2.5 21.5 17C34.4 83.8 44.8 92 45.6 92.7c1.3 1 .4 4.6-7.2 28-4.8 14.7-8.9 27.4-9.2 28.1-.3.8 10.8-6.1 24.5-15.3l25.1-16.7 23.8 15.9c13.2 8.8 24.4 16.2 25 16.6.6.4-2.9-11.6-7.7-26.6-4.9-14.9-8.8-27.8-8.7-28.4.2-.7 10.6-9.4 23.1-19.3l22.9-18H98.9l-1.8-4.3c-.9-2.3-5.3-14.6-9.6-27.2C83.2 12.8 79.4 2.1 79 1.7c-.4-.4-5 11.7-10.2 27zM247 28.8l-9.5 27.7h-29.3c-16 0-29.1.3-29 .7.2.4 10.4 8.6 22.8 18.4 12.4 9.7 22.7 17.8 22.9 18 .2.2-3.7 12.8-8.7 28.1-5 15.3-9 27.9-8.8 28 .2.2 11.4-7.1 24.9-16.2l24.6-16.5 24.8 16.4c13.6 9.1 24.9 16.4 25 16.2.2-.2-3.6-12.7-8.5-27.7-5-15.1-8.8-27.7-8.6-28 .2-.4 10.5-8.6 22.9-18.4 12.4-9.8 22.5-18.1 22.5-18.4 0-.3-13.1-.6-29.1-.6h-29.1l-9.6-27.8C261.9 13.5 257.4 1 257.1 1c-.4 0-4.9 12.5-10.1 27.8zm39.4 38c9.7.1 17.6.6 17.5 1 0 .4-6.2 5.5-13.8 11.4l-13.8 10.7 5.3 16.3c3 9 5.4 16.6 5.4 16.9 0 .4-6.7-3.9-15-9.4l-15-10.1.1-35V33.5l5.8 16.5 5.8 16.5 17.7.3zM431.3 12.2c-2.2 6.2-6.6 18.8-9.7 28L415.8 57l-29 .2-29 .3 8.8 7c4.9 3.8 15.3 12 23.1 18.2l14.1 11.2-8.4 25.8c-4.6 14.2-8.7 26.8-9 28-.5 1.7 5.2-1.6 23.9-14.2 13.5-9.1 24.8-16.5 25.2-16.5.3 0 11.6 7.4 25 16.4 13.5 9 24.5 16.1 24.5 15.7 0-.3-4-12.9-8.9-27.9l-8.9-27.3 9.2-7.3c5-4 15.5-12.3 23.4-18.4L514.1 57h-29.5c-16.3 0-29.6-.2-29.6-.3 0-.7-19-55.1-19.4-55.4-.2-.2-2.1 4.7-4.3 10.9zm11.2 40.5l4.9 14.3 18 .2 17.9.3-13.9 10.9c-7.6 6-14.1 11.1-14.3 11.2-.2.2 2.2 7.8 5.3 17 3.1 9.2 5.4 16.9 5.3 17-.2.2-7-4.1-15.2-9.6-14.7-9.8-15-9.9-17.5-8.3-1.4.9-8.1 5.4-14.9 10-6.8 4.6-12.5 8.2-12.7 8-.2-.1 2.2-7.8 5.2-17.1 3.1-9.2 5.4-16.9 5.2-17-.1-.1-6.5-5.1-14.1-11.2l-13.9-10.9 17.9-.3 18-.2 5.8-17.1c6.7-19.7 5.2-20 13 2.8zM605 25.8c-4.6 13.6-9 26.2-9.7 27.9L594 57l-28.9.2-28.9.3 21.4 16.9c11.7 9.3 22.1 17.4 23 18.1 1.5 1 .8 3.8-7 27.8-4.8 14.7-8.9 27.4-9.3 28.3-.3.9 10.7-5.9 24.4-15.1l25.1-16.7 24.8 16.6c13.6 9.1 24.9 16.4 25 16.3.1-.1-3.8-12.4-8.7-27.2-4.9-14.9-8.9-27.5-8.9-28 0-.6 10.3-9.1 22.9-19l22.8-18-29.1-.5-29.1-.5-9.5-27.2c-5.2-14.9-9.7-27.4-10-27.7-.3-.3-4.4 10.6-9 24.2zm15 24.5l5.7 16.2 17.6.3c9.7.1 17.7.6 17.6 1 0 .4-6.3 5.5-13.9 11.5L633.1 90l5.5 16.2c3 8.9 5.4 16.6 5.4 17 0 .5-6.7-3.7-15-9.2l-15-10-15 10c-8.2 5.5-15.1 10-15.3 10-.1 0 2.1-7.3 5-16.3 2.9-8.9 5.3-16.7 5.3-17.2 0-.6-6.3-6-14-12l-14-11 18-.3 17.9-.2 1.9-5.3c1.1-2.8 3.7-10.5 5.8-16.9 2.1-6.5 4-11.5 4.3-11.2.3.3 3.1 7.8 6.1 16.7zM791.3 3c-.6 1.4-5 14.1-9.8 28.2L772.7 57h-58.9l23.5 18.4 23.4 18.5-8.9 27.1c-4.9 15-8.7 27.4-8.5 27.7.3.2 11.4-6.8 24.7-15.7l24.2-16.2 24.9 16.6c13.7 9.1 24.9 16.4 24.9 16.2 0-.2-4.1-12.9-9-28.2-5-15.2-8.7-28-8.2-28.3.5-.3 10.9-8.5 23.1-18.1l22.3-17.5L841 57l-29.2-.5-9.4-27c-5.2-14.9-9.6-27.5-9.8-28-.2-.6-.8.1-1.3 1.5zm30.9 64.2l18 .3L826.9 78c-7.3 5.8-13.7 10.8-14.2 11.1-.6.4 1.3 7.9 4.6 17.8 3 9.5 5.2 17.1 4.8 16.9-.3-.2-7.2-4.7-15.4-10.1l-14.7-9.8-14.7 10.1c-8 5.5-14.8 9.9-14.9 9.7-.2-.2 2.1-7.8 5-17l5.4-16.8-14.1-11.2-14.1-11.2 18-.3 18-.2 4.8-14.8c2.7-8.1 5.3-15.8 5.8-17.2.9-2.2 1.7-.3 7 14.7l6 17.3 18 .2z"/></g></svg>