<svg version="1" xmlns="http://www.w3.org/2000/svg" width="1161.333" height="200" viewBox="0 0 871.000000 150.000000"><g fill="#161616"><path d="M68.8 28.7l-9.5 27.8-29.1.5-29.2.5 21.5 17C34.4 83.8 44.8 92 45.6 92.7c1.3 1 .4 4.6-7.2 28-4.8 14.7-8.9 27.4-9.2 28.1-.3.8 10.8-6.1 24.5-15.3l25.1-16.7 23.8 15.9c13.2 8.8 24.4 16.2 25 16.6.6.4-2.9-11.6-7.7-26.6-4.9-14.9-8.8-27.8-8.7-28.4.2-.7 10.6-9.4 23.1-19.3l22.9-18H98.9l-1.8-4.3c-.9-2.3-5.3-14.6-9.6-27.2C83.2 12.8 79.4 2.1 79 1.7c-.4-.4-5 11.7-10.2 27zM247 28.8l-9.5 27.7h-29.3c-16 0-29.1.3-29 .7.2.4 10.4 8.6 22.8 18.4 12.4 9.7 22.7 17.8 22.9 18 .2.2-3.7 12.8-8.7 28.1-5 15.3-9 27.9-8.8 28 .2.2 11.4-7.1 24.9-16.2l24.6-16.5 24.8 16.4c13.6 9.1 24.9 16.4 25 16.2.2-.2-3.6-12.7-8.5-27.7-5-15.1-8.8-27.7-8.6-28 .2-.4 10.5-8.6 22.9-18.4 12.4-9.8 22.5-18.1 22.5-18.4 0-.3-13.1-.6-29.1-.6h-29.1l-9.6-27.8C261.9 13.5 257.4 1 257.1 1c-.4 0-4.9 12.5-10.1 27.8zM434.2 3.1c-.5 1.3-4.8 13.9-9.6 27.9l-8.7 25.5-29.4-.3c-16.2-.1-29.5.1-29.5.5s1.3 1.7 2.8 2.8c1.5 1 12 9.2 23.3 18.2L403.8 94l-8.9 27.1c-4.9 14.9-8.9 27.5-8.9 28s10.9-6.4 24.2-15.3c13.4-8.9 24.7-16.1 25.3-16.1.6 0 11.9 7.2 25.3 16.1 13.3 8.9 24.3 16.2 24.6 16.2.2 0-3.6-12.3-8.5-27.3C472 107.8 468 95 468 94.5c0-.6 10.3-9.1 23-19 12.6-9.9 22.9-18.4 22.9-18.8.1-.4-13-.7-29.1-.7-23.1.1-29.3-.2-29.9-1.2-.4-.7-4.6-12.8-9.5-26.8-4.8-14-9.1-25.9-9.5-26.4-.5-.5-1.2.1-1.7 1.5zM603.8 28.6l-9.4 27.5-29.2-.1c-16.1 0-29.2.3-29.2.8 0 .6 41.4 33.9 45.2 36.3.6.4-2.9 12.3-8.1 28.4-5 15.3-9 27.9-8.8 28.1.2.2 11.4-7.1 25-16.1L614 117l24.7 16.5c13.6 9.1 24.8 16.4 24.9 16.2.2-.2-3.7-12.8-8.7-28.1l-9-27.7 2.8-2.2c26.1-20.5 42.9-34 43.1-34.8.3-.6-10.4-.9-28.9-.9l-29.4.1-9.5-27.5C618.8 13.4 614.2 1 613.9 1c-.4 0-4.9 12.4-10.1 27.6zM624.3 63l1.3 3.5 17.9.5 17.9.5-14.1 11.2-14.1 11.2 5.4 16.7c3 9.2 5.4 16.9 5.4 17.1 0 .2-6.7-4.2-15-9.7l-15-10.1.1-34.7V34.5l4.5 12.5c2.4 6.9 5 14.1 5.7 16zM791.3 3c-.6 1.4-5 14.1-9.8 28.2L772.7 57h-58.9l23.5 18.4 23.4 18.5-8.9 27.1c-4.9 15-8.7 27.4-8.5 27.7.3.2 11.4-6.8 24.7-15.7l24.2-16.2 24.9 16.6c13.7 9.1 24.9 16.4 24.9 16.2 0-.2-4.1-12.9-9-28.2-5-15.2-8.7-28-8.2-28.3.5-.3 10.9-8.5 23.1-18.1l22.3-17.5L841 57l-29.2-.5-9.4-27c-5.2-14.9-9.6-27.5-9.8-28-.2-.6-.8.1-1.3 1.5zm30.9 64.2l18 .3L826.9 78c-7.3 5.8-13.7 10.8-14.2 11.1-.6.4 1.3 7.9 4.6 17.8 3 9.5 5.2 17.1 4.8 16.9-.3-.2-7.2-4.7-15.4-10.1l-14.7-9.8-14.7 10.1c-8 5.5-14.8 9.9-14.9 9.7-.2-.2 2.1-7.8 5-17l5.4-16.8-14.1-11.2-14.1-11.2 18-.3 18-.2 4.8-14.8c2.7-8.1 5.3-15.8 5.8-17.2.9-2.2 1.7-.3 7 14.7l6 17.3 18 .2z"/></g></svg>