<?xml version="1.0" standalone="no"?>
<!DOCTYPE svg PUBLIC "-//W3C//DTD SVG 20010904//EN"
 "http://www.w3.org/TR/2001/REC-SVG-20010904/DTD/svg10.dtd">
<svg version="1.0" xmlns="http://www.w3.org/2000/svg"
 width="871.000000pt" height="150.000000pt" viewBox="0 0 871.000000 150.000000"
 preserveAspectRatio="xMidYMid meet">
<metadata>
Created by potrace 1.14, written by Peter Selinger 2001-2017
</metadata>
<g transform="translate(0.000000,150.000000) scale(0.100000,-0.100000)"
fill="#161616" stroke="none">
<path d="M688 1213 l-95 -278 -291 -5 -292 -5 215 -170 c119 -93 223 -175 231
-182 13 -10 4 -46 -72 -280 -48 -147 -89 -274 -92 -281 -3 -8 108 61 245 153
l251 167 238 -159 c132 -88 244 -162 250 -166 6 -4 -29 116 -77 266 -49 149
-88 278 -87 284 2 7 106 94 231 193 l229 180 -291 0 -292 0 -18 43 c-9 23 -53
146 -96 272 -43 127 -81 234 -85 238 -4 4 -50 -117 -102 -270z"/>
<path d="M2470 1212 l-95 -277 -293 0 c-160 0 -291 -3 -290 -7 2 -4 104 -86
228 -184 124 -97 227 -178 229 -180 2 -2 -37 -128 -87 -281 -50 -153 -90 -279
-88 -280 2 -2 114 71 249 162 l246 165 248 -164 c136 -91 249 -164 250 -162 2
2 -36 127 -85 277 -50 151 -88 277 -86 280 2 4 105 86 229 184 124 98 225 181
225 184 0 3 -131 6 -291 6 l-291 0 -96 278 c-53 152 -98 277 -101 277 -4 0
-49 -125 -101 -278z"/>
<path d="M4342 1469 c-5 -13 -48 -139 -96 -279 l-87 -255 -294 3 c-162 1 -295
-1 -295 -5 0 -4 13 -17 28 -28 15 -10 120 -92 233 -182 l207 -163 -89 -271
c-49 -149 -89 -275 -89 -280 0 -5 109 64 242 153 134 89 247 161 253 161 6 0
119 -72 253 -161 133 -89 243 -162 246 -162 2 0 -36 123 -85 273 -49 149 -89
277 -89 282 0 6 103 91 230 190 126 99 229 184 229 188 1 4 -130 7 -291 7
-231 -1 -293 2 -299 12 -4 7 -46 128 -95 268 -48 140 -91 259 -95 264 -5 5
-12 -1 -17 -15z"/>
<path d="M6038 1214 l-94 -275 -292 1 c-161 0 -292 -3 -292 -8 0 -6 414 -339
452 -363 6 -4 -29 -124 -81 -284 -50 -153 -90 -280 -88 -281 2 -2 114 71 250
161 l247 165 247 -165 c136 -91 248 -164 249 -162 2 2 -37 128 -87 281 l-90
277 23 18 c13 11 115 91 228 180 113 89 207 166 208 172 3 6 -101 9 -290 9
l-293 -1 -95 275 c-52 152 -98 276 -101 276 -4 0 -49 -124 -101 -276z"/>
<path d="M7862 1333 c-29 -87 -72 -211 -95 -276 l-42 -119 -292 1 c-161 1
-293 -2 -293 -6 1 -4 104 -89 230 -188 126 -99 230 -184 230 -190 0 -5 -40
-131 -89 -280 -49 -149 -87 -272 -85 -273 1 -2 113 71 249 163 l246 167 247
-165 c136 -90 248 -161 250 -158 1 3 -38 129 -87 279 l-89 273 207 162 c113
90 218 172 233 183 15 10 28 23 28 27 0 4 -133 6 -295 5 l-295 -3 -8 25 c-107
311 -186 530 -191 530 -4 0 -30 -71 -59 -157z m116 -323 c28 -80 53 -153 57
-162 6 -16 27 -18 185 -20 l178 -3 -139 -110 c-76 -60 -139 -114 -139 -120 0
-5 24 -83 53 -172 52 -159 53 -162 28 -146 -15 9 -83 55 -153 101 l-128 85 0
350 c0 193 2 348 4 346 2 -2 26 -69 54 -149z"/>
</g>
</svg>
