<?xml version="1.0" standalone="no"?>
<!DOCTYPE svg PUBLIC "-//W3C//DTD SVG 20010904//EN"
 "http://www.w3.org/TR/2001/REC-SVG-20010904/DTD/svg10.dtd">
<svg version="1.0" xmlns="http://www.w3.org/2000/svg"
 width="871.000000pt" height="150.000000pt" viewBox="0 0 871.000000 150.000000"
 preserveAspectRatio="xMidYMid meet">
<metadata>
Created by potrace 1.14, written by Peter Selinger 2001-2017
</metadata>
<g transform="translate(0.000000,150.000000) scale(0.100000,-0.100000)"
fill="#161616" stroke="none">
<path d="M688 1213 l-95 -278 -291 -5 -292 -5 215 -170 c119 -93 223 -175 231
-182 13 -10 4 -46 -72 -280 -48 -147 -89 -274 -92 -281 -3 -8 108 61 245 153
l251 167 238 -159 c132 -88 244 -162 250 -166 6 -4 -29 116 -77 266 -49 149
-88 278 -87 284 2 7 106 94 231 193 l229 180 -291 0 -292 0 -18 43 c-9 23 -53
146 -96 272 -43 127 -81 234 -85 238 -4 4 -50 -117 -102 -270z"/>
<path d="M2470 1212 l-95 -277 -293 0 c-160 0 -291 -3 -290 -7 2 -4 104 -86
228 -184 124 -97 227 -178 229 -180 2 -2 -37 -128 -87 -281 -50 -153 -90 -279
-88 -280 2 -2 114 71 249 162 l246 165 248 -164 c136 -91 249 -164 250 -162 2
2 -36 127 -85 277 -50 151 -88 277 -86 280 2 4 105 86 229 184 124 98 225 181
225 184 0 3 -131 6 -291 6 l-291 0 -96 278 c-53 152 -98 277 -101 277 -4 0
-49 -125 -101 -278z"/>
<path d="M4342 1469 c-5 -13 -48 -139 -96 -279 l-87 -255 -294 3 c-162 1 -295
-1 -295 -5 0 -4 13 -17 28 -28 15 -10 120 -92 233 -182 l207 -163 -89 -270
c-49 -149 -89 -275 -89 -280 0 -6 109 63 242 152 134 89 247 161 253 161 6 0
119 -72 253 -161 133 -89 243 -162 246 -162 2 0 -36 123 -85 273 -49 149 -89
277 -89 282 0 6 103 91 229 190 127 99 230 184 230 188 1 4 -130 7 -291 7
-231 -1 -293 2 -299 12 -4 7 -46 128 -95 268 -48 140 -91 259 -95 264 -5 5
-12 -1 -17 -15z"/>
<path d="M6050 1242 c-46 -136 -90 -262 -97 -279 l-13 -33 -289 -2 -289 -3
214 -169 c117 -93 221 -174 230 -181 15 -10 8 -38 -70 -278 -48 -147 -89 -274
-93 -283 -3 -9 107 59 244 151 l251 167 248 -166 c136 -91 249 -164 250 -163
1 1 -38 124 -87 272 -49 149 -89 275 -89 280 0 6 103 91 229 190 l228 180
-291 5 -291 5 -95 272 c-52 149 -97 274 -100 277 -3 3 -44 -106 -90 -242z"/>
<path d="M7913 1470 c-6 -14 -50 -141 -98 -282 l-88 -258 -294 0 -295 0 235
-184 234 -185 -89 -271 c-49 -150 -87 -274 -85 -277 3 -2 114 68 247 157 l242
162 249 -166 c137 -91 249 -164 249 -162 0 2 -41 129 -90 282 -50 152 -87 280
-82 283 5 3 109 85 231 181 l223 175 -292 5 -292 5 -94 270 c-52 149 -96 275
-98 280 -2 6 -8 -1 -13 -15z"/>
</g>
</svg>
