<?xml version="1.0" standalone="no"?>
<!DOCTYPE svg PUBLIC "-//W3C//DTD SVG 20010904//EN"
 "http://www.w3.org/TR/2001/REC-SVG-20010904/DTD/svg10.dtd">
<svg version="1.0" xmlns="http://www.w3.org/2000/svg"
 width="871.000000pt" height="150.000000pt" viewBox="0 0 871.000000 150.000000"
 preserveAspectRatio="xMidYMid meet">
<metadata>
Created by potrace 1.14, written by Peter Selinger 2001-2017
</metadata>
<g transform="translate(0.000000,150.000000) scale(0.100000,-0.100000)"
fill="#161616" stroke="none">
<path d="M688 1213 l-95 -278 -291 -5 -292 -5 215 -170 c119 -93 223 -175 231
-182 13 -10 4 -46 -72 -280 -48 -147 -89 -274 -92 -281 -3 -8 108 61 245 153
l251 167 238 -159 c132 -88 244 -162 250 -166 6 -4 -29 116 -77 266 -49 149
-88 278 -87 284 2 7 106 94 231 193 l229 180 -291 0 -292 0 -18 43 c-9 23 -53
146 -96 272 -43 127 -81 234 -85 238 -4 4 -50 -117 -102 -270z"/>
<path d="M2470 1212 l-95 -277 -293 0 c-160 0 -291 -3 -290 -7 2 -4 104 -86
228 -184 124 -97 227 -178 229 -180 2 -2 -37 -128 -87 -281 -50 -153 -90 -279
-88 -280 2 -2 114 71 249 162 l246 165 248 -164 c136 -91 249 -164 250 -162 2
2 -36 127 -85 277 -50 151 -88 277 -86 280 2 4 105 86 229 184 124 98 225 181
225 184 0 3 -131 6 -291 6 l-291 0 -96 278 c-53 152 -98 277 -101 277 -4 0
-49 -125 -101 -278z m394 -380 c97 -1 176 -6 175 -10 0 -4 -62 -55 -138 -114
l-138 -107 53 -163 c30 -90 54 -166 54 -169 0 -4 -67 39 -150 94 l-150 101 1
350 0 351 58 -165 58 -165 177 -3z"/>
<path d="M4313 1378 c-22 -62 -66 -188 -97 -280 l-58 -168 -290 -2 -290 -3 88
-70 c49 -38 153 -120 231 -182 l141 -112 -84 -258 c-46 -142 -87 -268 -90
-280 -5 -17 52 16 239 142 135 91 248 165 252 165 3 0 116 -74 250 -164 135
-90 245 -161 245 -157 0 3 -40 129 -89 279 l-89 273 92 73 c50 40 155 123 234
184 l143 112 -295 0 c-163 0 -296 2 -296 3 0 7 -190 551 -194 554 -2 2 -21
-47 -43 -109z m112 -405 l49 -143 180 -2 179 -3 -139 -109 c-76 -60 -141 -111
-143 -112 -2 -2 22 -78 53 -170 31 -92 54 -169 53 -170 -2 -2 -70 41 -152 96
-147 98 -150 99 -175 83 -14 -9 -81 -54 -149 -100 -68 -46 -125 -82 -127 -80
-2 1 22 78 52 171 31 92 54 169 52 170 -1 1 -65 51 -141 112 l-139 109 179 3
180 2 58 171 c67 197 52 200 130 -28z"/>
<path d="M6050 1242 c-46 -136 -90 -262 -97 -279 l-13 -33 -289 -2 -289 -3
214 -169 c117 -93 221 -174 230 -181 15 -10 8 -38 -70 -278 -48 -147 -89 -274
-93 -283 -3 -9 107 59 244 151 l251 167 248 -166 c136 -91 249 -164 250 -163
1 1 -38 124 -87 272 -49 149 -89 275 -89 280 0 6 103 91 229 190 l228 180
-291 5 -291 5 -95 272 c-52 149 -97 274 -100 277 -3 3 -44 -106 -90 -242z
m150 -245 l57 -162 176 -3 c97 -1 177 -6 176 -10 0 -4 -63 -55 -139 -115
l-139 -107 55 -162 c30 -89 54 -166 54 -170 0 -5 -67 37 -150 92 l-150 100
-150 -100 c-82 -55 -151 -100 -153 -100 -1 0 21 73 50 163 29 89 53 167 53
172 0 6 -63 60 -140 120 l-140 110 180 3 179 2 19 53 c11 28 37 105 58 169 21
65 40 115 43 112 3 -3 31 -78 61 -167z"/>
<path d="M7913 1470 c-6 -14 -50 -141 -98 -282 l-88 -258 -294 0 -295 0 235
-184 234 -185 -89 -271 c-49 -150 -87 -274 -85 -277 3 -2 114 68 247 157 l242
162 249 -166 c137 -91 249 -164 249 -162 0 2 -41 129 -90 282 -50 152 -87 280
-82 283 5 3 109 85 231 181 l223 175 -292 5 -292 5 -94 270 c-52 149 -96 275
-98 280 -2 6 -8 -1 -13 -15z m309 -642 l180 -3 -133 -105 c-73 -58 -137 -108
-142 -111 -6 -4 13 -79 46 -178 30 -95 52 -171 48 -169 -3 2 -72 47 -154 101
l-147 98 -147 -101 c-80 -55 -148 -99 -149 -97 -2 2 21 78 50 170 l54 168
-141 112 -141 112 180 3 180 2 48 148 c27 81 53 158 58 172 9 22 17 3 70 -147
l60 -173 180 -2z"/>
</g>
</svg>
