<svg version="1" xmlns="http://www.w3.org/2000/svg" width="960" height="960" viewBox="0 0 720 720"><g fill="#161616"><path d="M0 360v360h720V0H0v360zM425.5 94.5c9.4 1.9 31 6.5 48.1 10.2l31.1 6.6 5.9-6c13.7-14 31.6-17.4 51-9.7 11.2 4.6 21.3 15.6 24.8 27.4 5.8 19.4-4.2 42.3-22.3 51.5-6 3-15.9 5.5-22.1 5.5-20.1 0-40.9-16.9-44.5-36.3-.4-2.1-1.4-3.9-2.4-4.1-1.8-.6-69.6-15.1-75.1-16.1l-3.6-.6-6.6 20.3c-13.8 42.3-21.9 68-21.6 68.2.2.2 6.5.8 14 1.5 39.2 3.3 84.8 18.5 117 38.7l8.7 5.5 5.3-4.2c10.5-8.4 22.6-12.2 38.3-12.1 23.6.2 42.9 12.4 53.5 33.8 13.2 26.9 3.8 58.5-23 76.5-3.9 2.6-4.9 3.9-4.5 5.4 1.7 6.7 2.7 21.4 2.1 31.5-2.6 47.7-29.8 90.4-78.1 122.6-22.6 15-59.5 30.4-88.5 36.8-20.9 4.6-49.1 7.6-70.9 7.6-36.5 0-81.1-8.1-113.4-20.6-13.6-5.2-33.9-15.7-46.4-24-39-25.8-64.7-59.3-74.3-97-3-11.8-4.5-32.3-3.1-44.6.6-5.7 1.3-11.2 1.6-12.3.4-1.5-.4-2.6-3.6-4.5-6.3-3.8-16.1-13.7-20.8-20.9-5.3-8.3-8.1-17.4-8.8-28.2-2.1-34 23.7-61.7 57.7-62.1 12.8-.1 22.4 2.6 36.3 10.2 5.9 3.3 11.1 6 11.4 6 .4 0 3.2-1.7 6.3-3.9 14.9-10.4 40.9-22.7 64.7-30.5 23.4-7.6 58.5-13.6 80-13.6h9.2l6.7-20.8c3.6-11.4 8.5-26.8 10.9-34.2 2.4-7.4 7.2-22.5 10.6-33.5 3.3-11 7-21.4 8-23.2 2.1-3.3 9.4-7.6 11.9-6.8.8.2 9.2 2 18.5 4z"/><path d="M267.3 316.8c-10.2 3.7-17.9 10.7-22.5 20.8-1.9 4-2.3 6.6-2.3 14.4 0 11.7 1.9 16.4 10 24.9 11.9 12.5 29.8 15.6 44 7.6 5.6-3.2 14.1-12.5 16.7-18.2 3.3-7.3 3.1-21.8-.4-29.3-3.5-7.7-9.6-14.1-17-18-5.5-3-7.4-3.4-14.8-3.7-6.4-.3-9.8.1-13.7 1.5zM435.4 315.9c-9.7 2.5-19.5 11.1-24.3 21.1-2.1 4.6-2.5 7-2.6 14.5 0 7.8.4 9.8 2.8 15 2.9 6.2 9.8 14.1 15.3 17.6 10.3 6.4 26.4 6.4 36.8-.1 5.1-3.1 13.4-12.4 15.8-17.7 1.8-3.8 2.2-6.7 2.3-14.3 0-8.4-.3-10.2-2.8-15.1-3.9-8-9.6-14-16.9-17.9-5.5-3-7.3-3.4-14.8-3.7-4.7-.1-9.9.1-11.6.6zM274.2 440.7c-5.7 3.7-7.6 8-6.2 13.4 1.7 6.1 3.5 8.4 10.7 13.5 14 9.7 34.7 18.3 53.7 22.2 10.5 2.1 46.6 2.3 57.6.3 20.3-3.6 42.8-12.7 55.2-22.1 13.6-10.3 15.4-20.1 5-27-5.5-3.6-11.2-4-15.7-.9-31.6 21.4-67.5 28.1-103.5 19.2-12.1-3-29.5-11.1-41.5-19.2-4.3-3-10.1-2.7-15.3.6z"/></g></svg>