<?xml version="1.0" standalone="no"?>
<!DOCTYPE svg PUBLIC "-//W3C//DTD SVG 20010904//EN"
 "http://www.w3.org/TR/2001/REC-SVG-20010904/DTD/svg10.dtd">
<svg version="1.0" xmlns="http://www.w3.org/2000/svg"
 width="720.000000pt" height="720.000000pt" viewBox="0 0 720.000000 720.000000"
 preserveAspectRatio="xMidYMid meet">
<metadata>
Created by potrace 1.15, written by Peter Selinger 2001-2017
</metadata>
<g transform="translate(0.000000,720.000000) scale(0.100000,-0.100000)"
fill="#161616" stroke="none">
<path d="M0 3600 l0 -3600 3600 0 3600 0 0 3600 0 3600 -3600 0 -3600 0 0
-3600z m4255 2655 c94 -19 310 -65 481 -102 l311 -66 59 60 c137 140 316 174
510 97 112 -46 213 -156 248 -274 58 -194 -42 -423 -223 -515 -60 -30 -159
-55 -221 -55 -201 0 -409 169 -445 363 -4 21 -14 39 -24 41 -18 6 -696 151
-751 161 l-36 6 -66 -203 c-138 -423 -219 -680 -216 -682 2 -2 65 -8 140 -15
392 -33 848 -185 1170 -387 l87 -55 53 42 c105 84 226 122 383 121 236 -2 429
-124 535 -338 132 -269 38 -585 -230 -765 -39 -26 -49 -39 -45 -54 17 -67 27
-214 21 -315 -26 -477 -298 -904 -781 -1226 -226 -150 -595 -304 -885 -368
-209 -46 -491 -76 -709 -76 -365 0 -811 81 -1134 206 -136 52 -339 157 -464
240 -390 258 -647 593 -743 970 -30 118 -45 323 -31 446 6 57 13 112 16 123 4
15 -4 26 -36 45 -63 38 -161 137 -208 209 -53 83 -81 174 -88 282 -21 340 237
617 577 621 128 1 224 -26 363 -102 59 -33 111 -60 114 -60 4 0 32 17 63 39
149 104 409 227 647 305 234 76 585 136 800 136 l92 0 67 208 c36 114 85 268
109 342 24 74 72 225 106 335 33 110 70 214 80 232 21 33 94 76 119 68 8 -2
92 -20 185 -40z"/>
<path d="M2673 4032 c-102 -37 -179 -107 -225 -208 -19 -40 -23 -66 -23 -144
0 -117 19 -164 100 -249 119 -125 298 -156 440 -76 56 32 141 125 167 182 33
73 31 218 -4 293 -35 77 -96 141 -170 180 -55 30 -74 34 -148 37 -64 3 -98 -1
-137 -15z"/>
<path d="M4354 4041 c-97 -25 -195 -111 -243 -211 -21 -46 -25 -70 -26 -145 0
-78 4 -98 28 -150 29 -62 98 -141 153 -176 103 -64 264 -64 368 1 51 31 134
124 158 177 18 38 22 67 23 143 0 84 -3 102 -28 151 -39 80 -96 140 -169 179
-55 30 -73 34 -148 37 -47 1 -99 -1 -116 -6z"/>
<path d="M2742 2793 c-57 -37 -76 -80 -62 -134 17 -61 35 -84 107 -135 140
-97 347 -183 537 -222 105 -21 466 -23 576 -3 203 36 428 127 552 221 136 103
154 201 50 270 -55 36 -112 40 -157 9 -316 -214 -675 -281 -1035 -192 -121 30
-295 111 -415 192 -43 30 -101 27 -153 -6z"/>
</g>
</svg>
