<?xml version="1.0" standalone="no"?>
<!DOCTYPE svg PUBLIC "-//W3C//DTD SVG 20010904//EN"
 "http://www.w3.org/TR/2001/REC-SVG-20010904/DTD/svg10.dtd">
<svg version="1.0" xmlns="http://www.w3.org/2000/svg"
 width="500.000000pt" height="500.000000pt" viewBox="0 0 500.000000 500.000000"
 preserveAspectRatio="xMidYMid meet">
<metadata>
Created by potrace 1.15, written by Peter Selinger 2001-2017
</metadata>
<g transform="translate(0.000000,500.000000) scale(0.100000,-0.100000)"
fill="#161616" stroke="none">
<path d="M0 2500 l0 -2500 2500 0 2500 0 0 2500 0 2500 -2500 0 -2500 0 0
-2500z m3691 962 c58 -52 56 -66 -85 -738 -70 -329 -134 -619 -142 -644 -8
-25 -48 -204 -89 -397 -41 -194 -82 -367 -91 -385 -33 -67 -91 -85 -157 -52
-18 9 -149 103 -293 210 -143 106 -278 202 -300 214 -21 12 -46 30 -55 39 -9
9 -99 77 -201 150 l-185 134 516 465 c647 583 664 599 659 614 -7 20 -53 21
-88 3 -17 -9 -176 -107 -353 -219 -177 -112 -488 -308 -692 -436 -203 -128
-371 -234 -373 -235 -2 -2 52 -181 119 -398 103 -331 126 -397 143 -401 11 -3
22 -3 24 -1 3 2 13 127 23 277 10 150 20 278 21 284 2 6 81 -46 176 -115 l173
-126 -161 -154 c-193 -184 -219 -204 -265 -195 l-33 6 -56 181 c-31 100 -87
281 -124 402 l-68 220 -322 101 c-176 56 -332 109 -346 118 -61 39 -51 93 24
135 82 46 2493 970 2532 971 28 0 46 -8 69 -28z"/>
</g>
</svg>
