<svg version="1" xmlns="http://www.w3.org/2000/svg" width="666.667" height="666.667" viewBox="0 0 500 500"><path d="M0 250v250h500V0H0v250zm369.1-96.2c5.8 5.2 5.6 6.6-8.5 73.8-7 32.9-13.4 61.9-14.2 64.4-.8 2.5-4.8 20.4-8.9 39.7-4.1 19.4-8.2 36.7-9.1 38.5-3.3 6.7-9.1 8.5-15.7 5.2-1.8-.9-14.9-10.3-29.3-21-14.3-10.6-27.8-20.2-30-21.4-2.1-1.2-4.6-3-5.5-3.9-.9-.9-9.9-7.7-20.1-15l-18.5-13.4 51.6-46.5c64.7-58.3 66.4-59.9 65.9-61.4-.7-2-5.3-2.1-8.8-.3-1.7.9-17.6 10.7-35.3 21.9-17.7 11.2-48.8 30.8-69.2 43.6-20.3 12.8-37.1 23.4-37.3 23.5-.2.2 5.2 18.1 11.9 39.8 10.3 33.1 12.6 39.7 14.3 40.1 1.1.3 2.2.3 2.4.1.3-.2 1.3-12.7 2.3-27.7 1-15 2-27.8 2.1-28.4.2-.6 8.1 4.6 17.6 11.5l17.3 12.6-16.1 15.4c-19.3 18.4-21.9 20.4-26.5 19.5l-3.3-.6-5.6-18.1c-3.1-10-8.7-28.1-12.4-40.2l-6.8-22-32.2-10.1c-17.6-5.6-33.2-10.9-34.6-11.8-6.1-3.9-5.1-9.3 2.4-13.5 8.2-4.6 249.3-97 253.2-97.1 2.8 0 4.6.8 6.9 2.8z" fill="#161616"/></svg>