<svg version="1" xmlns="http://www.w3.org/2000/svg" width="2214.667" height="2214.667" viewBox="0 0 1661.000000 1661.000000"><path d="M0 830.5V1661h1661V0H0v830.5zm1108-506c53.4 8.1 103.3 32.6 141.1 69.2l9.6 9.3 13-2.9c48.9-11.1 98.1-30.2 140.8-54.4 4.4-2.5 8.1-4.2 8.3-3.7.4 1.2-6.2 18.6-11.4 29.7-18.7 40.3-52.1 79-90.1 104.5-5.2 3.5-7.9 5.8-6.7 5.8 3.8 0 33-5.1 46.4-8.1 28.4-6.3 57.7-15.5 83.8-26.3l13.2-5.4-1.7 2.9c-3.6 6.1-20.2 28.2-30.8 41.1-21 25.5-59.3 62.1-85.9 82.1l-8.9 6.7-.2 35.3c-.3 43.5-2.7 72.7-9.1 111.7-19 115.8-65.1 226.7-133.9 322.5-38.5 53.5-87.9 105.3-138.5 145-60.5 47.5-130.2 85.2-203.2 110-110.7 37.7-239 48.8-355.8 30.9-93.9-14.4-183.2-46.7-265.5-96.1-7.7-4.7-14.7-9.1-15.5-10-1.3-1.3-1.1-1.4 2.5-.9 19.6 2.9 74.6 3.5 101.8 1.1 96.5-8.5 184.6-41.9 262.5-99.4l10.3-7.6-10.8-.7c-80.2-5.4-153.1-47.7-198-115.1-10.6-16.1-21.8-38.6-28.4-57.6l-1.9-5.4 4.3.7c35.8 5.3 67.1 4.5 100.2-2.5l11-2.3L450 932c-50-12.6-93.1-38.5-128.3-77-32.3-35.3-54.3-80.3-62.5-127.5-3.6-20.3-5.3-47.5-3.1-47.5.6 0 2.9 1.1 5.2 2.4 6.6 3.9 26.7 12.3 40 16.7 18.8 6.2 54.7 12.7 64.6 11.7l3.4-.3-9.1-6.8c-44.2-32.9-77.6-81.1-92.8-134.1-18-62.4-11.8-129.4 17.4-187.1 7.8-15.6 5.8-15.7 20.2 1.2 23.8 28 56.7 60.4 86.5 85.2 107.3 89.4 237.5 146 375 163 14.2 1.8 23.8 2.7 47.6 4.7l6.5.5-2.2-12.3c-6.5-34.7-5.2-74.3 3.5-108.8 16.7-66 59.5-123.3 118.3-158.1 33.7-20 65.3-30.2 109.8-35.3 8.1-.9 48 .3 58 1.9z" fill="#161616"/></svg>