<?xml version="1.0" standalone="no"?>
<!DOCTYPE svg PUBLIC "-//W3C//DTD SVG 20010904//EN"
 "http://www.w3.org/TR/2001/REC-SVG-20010904/DTD/svg10.dtd">
<svg version="1.0" xmlns="http://www.w3.org/2000/svg"
 width="401.000000pt" height="401.000000pt" viewBox="0 0 401.000000 401.000000"
 preserveAspectRatio="xMidYMid meet">
<metadata>
Created by potrace 1.15, written by Peter Selinger 2001-2017
</metadata>
<g transform="translate(0.000000,401.000000) scale(0.100000,-0.100000)"
fill="#161616" stroke="none">
<path d="M0 2005 l0 -2005 2005 0 2005 0 0 2005 0 2005 -2005 0 -2005 0 0
-2005z m3510 508 l0 -918 -387 -387 -388 -388 -295 0 -295 0 -195 -195 -195
-195 -202 0 -203 0 0 195 0 195 -355 0 -355 0 0 1053 0 1052 84 225 c46 124
89 237 95 253 l11 27 1340 0 1340 0 0 -917z"/>
<path d="M1100 2225 l0 -935 295 0 295 0 0 -192 0 -193 193 193 192 192 360 0
360 0 223 223 222 222 0 713 0 712 -1070 0 -1070 0 0 -935z m980 35 l0 -400
-135 0 -135 0 0 400 0 400 135 0 135 0 0 -400z m720 0 l0 -401 -137 3 -138 3
-3 375 c-1 206 0 385 3 398 5 21 9 22 140 22 l135 0 0 -400z"/>
</g>
</svg>
