<?xml version="1.0" standalone="no"?>
<!DOCTYPE svg PUBLIC "-//W3C//DTD SVG 20010904//EN"
 "http://www.w3.org/TR/2001/REC-SVG-20010904/DTD/svg10.dtd">
<svg version="1.0" xmlns="http://www.w3.org/2000/svg"
 width="1661.000000pt" height="1661.000000pt" viewBox="0 0 1661.000000 1661.000000"
 preserveAspectRatio="xMidYMid meet">
<metadata>
Created by potrace 1.14, written by Peter Selinger 2001-2017
</metadata>
<g transform="translate(0.000000,1661.000000) scale(0.100000,-0.100000)"
fill="#161616" stroke="none">
<path d="M0 8305 l0 -8305 8305 0 8305 0 0 8305 0 8305 -8305 0 -8305 0 0
-8305z m11080 5060 c534 -81 1033 -326 1411 -692 l96 -93 130 29 c489 111 981
302 1408 544 44 25 81 42 83 37 4 -12 -62 -186 -114 -297 -187 -403 -521 -790
-901 -1045 -52 -35 -79 -58 -67 -58 38 0 330 51 464 81 284 63 577 155 838
263 l132 54 -17 -29 c-36 -61 -202 -282 -308 -411 -210 -255 -593 -621 -859
-821 l-89 -67 -2 -353 c-3 -435 -27 -727 -91 -1117 -190 -1158 -651 -2267
-1339 -3225 -385 -535 -879 -1053 -1385 -1450 -605 -475 -1302 -852 -2032
-1100 -1107 -377 -2390 -488 -3558 -309 -939 144 -1832 467 -2655 961 -77 47
-147 91 -155 100 -13 13 -11 14 25 9 196 -29 746 -35 1018 -11 965 85 1846
419 2625 994 l103 76 -108 7 c-802 54 -1531 477 -1980 1151 -106 161 -218 386
-284 576 l-19 54 43 -7 c358 -53 671 -45 1002 25 l110 23 -105 26 c-500 126
-931 385 -1283 770 -323 353 -543 803 -625 1275 -36 203 -53 475 -31 475 6 0
29 -11 52 -24 66 -39 267 -123 400 -167 188 -62 547 -127 646 -117 l34 3 -91
68 c-442 329 -776 811 -928 1341 -180 624 -118 1294 174 1871 78 156 58 157
202 -12 238 -280 567 -604 865 -852 1073 -894 2375 -1460 3750 -1630 142 -18
238 -27 476 -47 l65 -5 -22 123 c-65 347 -52 743 35 1088 167 660 595 1233
1183 1581 337 200 653 302 1098 353 81 9 480 -3 580 -19z"/>
</g>
</svg>
