<svg version="1" xmlns="http://www.w3.org/2000/svg" width="534.667" height="534.667" viewBox="0 0 401 401"><g fill="#161616"><path d="M0 200.5V401h401V0H0v200.5zm351-50.8v91.8l-38.7 38.7-38.8 38.8h-59L195 338.5 175.5 358H135v-39H64V108.5L72.4 86c4.6-12.4 8.9-23.7 9.5-25.3L83 58h268v91.7z"/><path d="M110 178.5V272h59v38.5l19.3-19.3 19.2-19.2h72l22.3-22.3 22.2-22.2V85H110v93.5zm98-3.5v40h-27v-80h27v40zm72 0v40.1l-13.7-.3-13.8-.3-.3-37.5c-.1-20.6 0-38.5.3-39.8.5-2.1.9-2.2 14-2.2H280v40z"/></g></svg>