<?xml version="1.0" standalone="no"?>
<!DOCTYPE svg PUBLIC "-//W3C//DTD SVG 20010904//EN"
 "http://www.w3.org/TR/2001/REC-SVG-20010904/DTD/svg10.dtd">
<svg version="1.0" xmlns="http://www.w3.org/2000/svg"
 width="960.000000pt" height="960.000000pt" viewBox="0 0 960.000000 960.000000"
 preserveAspectRatio="xMidYMid meet">
<metadata>
Created by potrace 1.14, written by Peter Selinger 2001-2017
</metadata>
<g transform="translate(0.000000,960.000000) scale(0.100000,-0.100000)"
fill="#161616" stroke="none">
<path d="M0 4800 l0 -4800 4800 0 4800 0 0 4800 0 4800 -4800 0 -4800 0 0
-4800z m4872 1800 c208 -15 341 -54 399 -117 81 -87 85 -126 70 -792 -12 -574
-9 -661 25 -765 22 -66 99 -146 140 -146 130 1 351 255 634 730 110 185 308
598 371 773 16 46 71 112 108 131 21 11 152 14 671 17 639 4 645 4 690 -17 71
-33 85 -55 85 -133 0 -36 -8 -91 -18 -121 -34 -105 -138 -300 -256 -477 -108
-164 -193 -279 -560 -763 -155 -205 -205 -286 -227 -370 -14 -55 -14 -66 0
-114 24 -83 85 -154 322 -380 404 -385 604 -618 705 -822 70 -141 45 -240 -74
-300 -91 -47 -148 -52 -682 -58 -485 -7 -502 -6 -573 14 -194 55 -322 155
-607 475 -262 295 -362 375 -467 375 -27 0 -61 -6 -77 -14 -41 -22 -100 -91
-127 -151 -46 -101 -84 -302 -84 -448 0 -109 -42 -177 -134 -219 -50 -23 -57
-23 -371 -22 -304 1 -327 2 -458 28 -470 91 -897 323 -1252 680 -477 480
-1038 1383 -1532 2466 -114 248 -112 314 10 357 48 17 95 18 582 18 l530 0 53
-28 c68 -36 95 -75 167 -243 271 -635 684 -1279 876 -1369 62 -29 89 -31 128
-10 69 35 109 124 136 300 33 220 28 732 -10 920 -20 101 -64 194 -112 236
-41 35 -138 83 -193 94 -62 12 -70 16 -70 36 0 11 21 42 47 70 86 92 220 138
460 158 139 12 525 12 675 1z"/>
</g>
</svg>
