<svg version="1" xmlns="http://www.w3.org/2000/svg" width="1280" height="1280" viewBox="0 0 960.000000 960.000000"><path d="M0 480v480h960V0H0v480zm487.2-180c20.8 1.5 34.1 5.4 39.9 11.7 8.1 8.7 8.5 12.6 7 79.2-1.2 57.4-.9 66.1 2.5 76.5 2.2 6.6 9.9 14.6 14 14.6 13-.1 35.1-25.5 63.4-73 11-18.5 30.8-59.8 37.1-77.3 1.6-4.6 7.1-11.2 10.8-13.1 2.1-1.1 15.2-1.4 67.1-1.7 63.9-.4 64.5-.4 69 1.7 7.1 3.3 8.5 5.5 8.5 13.3 0 3.6-.8 9.1-1.8 12.1-3.4 10.5-13.8 30-25.6 47.7-10.8 16.4-19.3 27.9-56 76.3-15.5 20.5-20.5 28.6-22.7 37-1.4 5.5-1.4 6.6 0 11.4 2.4 8.3 8.5 15.4 32.2 38 40.4 38.5 60.4 61.8 70.5 82.2 7 14.1 4.5 24-7.4 30-9.1 4.7-14.8 5.2-68.2 5.8-48.5.7-50.2.6-57.3-1.4-19.4-5.5-32.2-15.5-60.7-47.5-26.2-29.5-36.2-37.5-46.7-37.5-2.7 0-6.1.6-7.7 1.4-4.1 2.2-10 9.1-12.7 15.1-4.6 10.1-8.4 30.2-8.4 44.8 0 10.9-4.2 17.7-13.4 21.9-5 2.3-5.7 2.3-37.1 2.2-30.4-.1-32.7-.2-45.8-2.8-47-9.1-89.7-32.3-125.2-68-47.7-48-103.8-138.3-153.2-246.6-11.4-24.8-11.2-31.4 1-35.7 4.8-1.7 9.5-1.8 58.2-1.8h53l5.3 2.8c6.8 3.6 9.5 7.5 16.7 24.3 27.1 63.5 68.4 127.9 87.6 136.9 6.2 2.9 8.9 3.1 12.8 1 6.9-3.5 10.9-12.4 13.6-30 3.3-22 2.8-73.2-1-92-2-10.1-6.4-19.4-11.2-23.6-4.1-3.5-13.8-8.3-19.3-9.4-6.2-1.2-7-1.6-7-3.6 0-1.1 2.1-4.2 4.7-7 8.6-9.2 22-13.8 46-15.8 13.9-1.2 52.5-1.2 67.5-.1z" fill="#161616"/></svg>