<svg version="1.0" xmlns="http://www.w3.org/2000/svg" width="1866.667" height="1866.667" viewBox="0 0 1400 1400"><g fill="#161616"><path d="M0 700v700h1400V0H0v700zm753-497.6c62.2 7.4 116.8 23.5 170.3 50.2 63.5 31.8 116.8 74.3 163.6 130.7 8.5 10.1 32.8 43.4 35.4 48.4.8 1.5 4.9 8.6 9.2 15.8 10.5 17.8 26 49.6 33.8 69.5 19 48.4 29.9 96.7 33.8 148.8 1.5 20.8.7 69.7-1.5 88.2-11.8 100.1-48.6 187.4-111.3 264.3-13.8 17-51 54.2-68 68-68.3 55.8-148.6 92.6-232.8 106.7-33.8 5.7-43.7 6.5-85.5 6.5s-51.7-.8-85.5-6.5c-84.2-14.1-165.2-51.3-232.8-106.7-24.5-20.1-53-49.3-74.5-76.1-8-10-27.7-37.4-29.2-40.6-.3-.6-4.2-7.3-8.7-14.8-30.3-50.5-52.4-110.6-62.3-169.3-5.6-33.3-6.4-43.9-6.5-84 0-37.9.6-47.3 4.6-74.5 11.6-77.4 41.8-152.8 86.4-215.3 46.4-65.1 102.2-114.6 172-152.5C520.1 228.5 587.8 208 652 202c6.3-.5 13.3-1.2 15.5-1.4 10.6-1 72.8.3 85.5 1.8z"/><path d="M664.5 257.5c-26.4 6-51.5 18.1-76.4 36.8-11.2 8.4-33.3 29.6-43.6 41.7-26.2 31.1-48.6 68.2-66.4 110.4l-4.9 11.5 14.7 3.5c51.1 12.2 118 20.8 178.7 22.9l7.1.2.5-114.5c.3-63 .5-114.6.4-114.6 0-.1-4.6.9-10.1 2.1zM725.3 295.7c.4 22.4.7 74 .7 114.7v74.1l7.2-.2c60.5-2 127.8-10.7 178.9-22.9l14.7-3.5-4.9-11.5c-15.8-37.5-37.2-74.1-59.7-102.3-10-12.6-32.4-35.4-43.7-44.6-26.4-21.4-55.8-36.1-84.9-42.4l-8.9-2 .6 40.6zM504.5 294.8c-45.6 22.2-86.4 51.2-122 86.8-12.2 12.3-29.5 31.5-29.5 32.8 0 1.7 38.7 18.1 60.1 25.4l11.7 4 5.8-14c6.8-16.7 20.7-45.2 29.4-60.4 14.3-25 36.2-55.5 52.5-73.3 5.7-6.2 7.2-8.2 6.3-8.1-.2 0-6.6 3.1-14.3 6.8zM882.1 289.8c.8 1.1 5.1 6.2 9.7 11.3 28.8 32.5 58.1 81 77.6 128.7l5.8 14 11.7-4c13.9-4.8 38.1-14.5 50.9-20.4 6.6-3.1 9.1-4.7 8.6-5.6-2.3-4.1-19.5-22.6-33.7-36.4-23.9-23.3-47.2-41.7-74.6-58.8-22.8-14.3-59-32.9-56-28.8zM316.8 464.7c-26.7 43.3-45.6 90.2-56.7 140.3-4.7 21.4-7 37.8-9.4 66.9l-.3 3.4 64.5-.8c35.5-.4 64.7-.8 64.7-.9.1 0 .7-8.9 1.3-19.6 2.1-34.4 6.7-70.7 13.2-103.5 2.7-13.6 13.3-56.8 14.4-58.5.2-.4-1.5-1.3-3.8-2-18.4-5.4-58.2-21.8-81.9-33.8-.3-.2-3.1 3.7-6 8.5zM1063 463c-16 7.6-49.7 21.3-63 25.5l-8.6 2.8 4.3 16.1c13.1 49 21 99.7 23.9 153.8l.6 12.8h20.7c11.3 0 40.4.3 64.6.7l44.1.6-.8-9.9c-4.3-55.9-20.3-113.4-45.7-164.4-7.2-14.4-24.6-45.2-25.4-44.9-.1 0-6.7 3.2-14.7 6.9zM456 508.5c-2.5 6.6-12.3 48.8-15.4 66.5-5.3 29.8-8 53.9-10.2 88.2l-.6 10.8H674V535l-2.2-.4c-1.3-.3-10.3-.7-20-1-53.3-1.7-120.5-10.6-171.9-22.6-9.6-2.2-18.6-4.3-20.1-4.7-2.3-.4-2.9-.1-3.8 2.2zM936.5 507.1c-7.8 2.4-45.1 10.2-63.5 13.3-44.2 7.5-104.1 13.6-135 13.6-5.2 0-10 .4-10.6.8-.8.5-1.3 20.7-1.6 68.7-.3 37.4-.4 68.6-.1 69.2.4 1 25.8 1.3 122.5 1.3h122l-.6-10.8c-3.1-49.2-9.2-90.4-19.6-132-2.8-11.2-5.5-21.4-6-22.8-1-2.5-2.6-2.8-7.5-1.3zM250.6 729.2c4.3 52 14.1 95 31.6 138.8 6.9 17.3 21.1 45.9 30.8 62 4.5 7.4 8.2 13.6 8.4 13.7.1.2 7.9-3.2 17.2-7.5 19.8-9.2 40-17.4 57.5-23.3l12.4-4.3-4.2-16c-13.1-49-21-99.7-23.8-153.7l-.7-12.6-48.1-.6c-26.4-.4-55.5-.7-64.7-.7h-16.8l.4 4.2zM727.1 725.8c-.8.3-1.1 21.3-1.1 69.7 0 62.3.2 69.3 1.6 69.9.9.3 5.7.6 10.7.6 11.1 0 34.9 1.5 58.2 3.6 44.2 4 91.4 11.6 130.6 21 8.7 2.1 15.5 3.2 16 2.7 1.2-1.2 10.3-37.1 13.8-54.8 3.9-19.7 7.7-44.5 9.5-62.5 1.7-16.8 4-49 3.5-49.5-.5-.4-241.5-1.1-242.8-.7zM1055.8 725.7l-35.8.3v3.3c0 1.7-.5 10.6-1.1 19.7-2 32.6-6.8 69.1-13 100.5-2.9 14.6-13.5 57.5-14.5 58.4-.2.3 6.2 2.8 14.3 5.6 20 7 39.8 15.2 57.6 23.7 8.1 3.9 14.9 6.9 15.2 6.7 2.2-2.3 18.4-31.1 25.4-45.4 26.5-53.8 40.2-104.8 45.5-169.3l.4-4.2-29.2.2c-16 .2-45.2.4-64.8.5zM430.4 736.7c3.1 50.1 9.2 91.1 20.1 133.8 3 12.1 5.9 22.3 6.3 22.7.5.5 5.8-.3 11.8-1.7 59.1-14 126.5-23.3 183.2-25.1 9.7-.3 18.7-.7 20-1l2.2-.4V726H429.8l.6 10.7zM666.5 915.7c-44.8 1.4-96.1 6.9-140 14.9-15.7 2.8-44.9 9.1-51.6 11-1.5.4-1 2.1 3.2 11.9 15.8 37.6 37.2 74.2 59.7 102.4 10 12.6 32.4 35.4 43.7 44.6 26.3 21.4 55.8 36.1 84.7 42.4l8.7 1.9-.6-114.7c-.3-63-.6-114.6-.7-114.6 0 0-3.2.1-7.1.2zM726 984.5c0 37.9-.3 89.6-.7 114.7l-.6 45.7 8.9-2c27-5.8 53-18.2 78.3-37.2 11.2-8.4 33.3-29.6 43.6-41.7 26.2-31.1 48.6-68.2 66.4-110.4l4.9-11.5-13.2-3.1c-51.6-12.3-113.9-20.6-170.4-22.8l-17.2-.7v69zM413.5 960c-14 4.7-32.5 12.1-48.7 19.5l-12.8 5.7 7.8 9.1c17.8 20.9 46.1 47.4 69.6 65.1 25.8 19.3 62.8 41.3 86 51 3.7 1.6 3.8 1.5 2.5-.3-.8-1-5.1-6.1-9.7-11.2-27.9-31.5-55.8-77.1-75.2-123.1-3.3-7.9-6.6-15.5-7.3-16.9l-1.2-2.6-11 3.7zM969.4 970.2c-15.3 37.5-37.9 77.7-60.1 107.2-8.4 11.1-20.8 26-24.3 29.1-5.9 5.3-3.8 5.3 7.5 0 42.7-20 85.1-49.6 120.4-84 12-11.7 34.1-35.7 34.1-37 0-1.6-39.8-18.3-60.1-25.3l-11.7-4-5.8 14z"/></g></svg>