<svg version="1.0" xmlns="http://www.w3.org/2000/svg" width="1365.333" height="1365.333" viewBox="0 0 1024 1024"><g fill="#161616"><path d="M0 512v512h1024V0H0v512zm564-242c137.6 2.5 202.3 7.7 226.2 18.3 15.7 7 30.7 20.9 39.6 36.7 9.2 16.3 14.9 46.3 18.7 98.5 4.3 59.8 4.3 111.2 0 171-5.4 72.8-13 98.9-35.1 119.5-15.9 14.9-31.2 20.9-63.5 24.9-98.4 12.4-377.4 12.4-475.8 0-32.3-4-47.6-10-63.5-24.9-22.1-20.6-29.7-46.7-35.1-119.5-4.3-59.8-4.3-111.2 0-171 3.8-51.8 9.3-81.1 18.2-97.4 12-22.2 31.7-37.2 56.4-43.1 27.2-6.4 102.6-11.2 203.4-12.9 23.1-.4 44.9-.8 48.5-.9 3.6-.1 31.5.3 62 .8z"/><path d="M442 509c0 69.9.3 100 1.1 100 .5 0 16.2-8.6 34.7-19.2 18.5-10.5 47.7-27.1 64.7-36.8 17.1-9.7 41.2-23.5 53.7-30.6 12.6-7.1 22.8-13.1 22.8-13.4 0-.3-11.6-7.1-25.8-15.1-14.1-8.1-53.5-30.5-87.4-49.8-33.9-19.3-62.2-35.1-62.7-35.1-.8 0-1.1 30.1-1.1 100z"/></g></svg>