<?xml version="1.0" standalone="no"?>
<!DOCTYPE svg PUBLIC "-//W3C//DTD SVG 20010904//EN"
 "http://www.w3.org/TR/2001/REC-SVG-20010904/DTD/svg10.dtd">
<svg version="1.0" xmlns="http://www.w3.org/2000/svg"
 width="1024.000000pt" height="1024.000000pt" viewBox="0 0 1024.000000 1024.000000"
 preserveAspectRatio="xMidYMid meet">
<metadata>
Created by potrace 1.15, written by Peter Selinger 2001-2017
</metadata>
<g transform="translate(0.000000,1024.000000) scale(0.100000,-0.100000)"
fill="#161616" stroke="none">
<path d="M0 5120 l0 -5120 5120 0 5120 0 0 5120 0 5120 -5120 0 -5120 0 0
-5120z m5640 2420 c1376 -25 2023 -77 2262 -183 157 -70 307 -209 396 -367 92
-163 149 -463 187 -985 43 -598 43 -1112 0 -1710 -54 -728 -130 -989 -351
-1195 -159 -149 -312 -209 -635 -249 -984 -124 -3774 -124 -4758 0 -323 40
-476 100 -635 249 -221 206 -297 467 -351 1195 -43 598 -43 1112 0 1710 38
518 93 811 182 974 120 222 317 372 564 431 272 64 1026 112 2034 129 231 4
449 8 485 9 36 1 315 -3 620 -8z"/>
<path d="M4420 5150 c0 -699 3 -1000 11 -1000 5 0 162 86 347 192 185 105 477
271 647 368 171 97 412 235 537 306 126 71 228 131 228 134 0 3 -116 71 -258
151 -141 81 -535 305 -874 498 -339 193 -622 351 -627 351 -8 0 -11 -301 -11
-1000z"/>
</g>
</svg>
