<svg version="1.0" xmlns="http://www.w3.org/2000/svg" width="1365.333" height="1365.333" viewBox="0 0 1024 1024"><path d="M58.5 4.9C44.3 8.7 32.9 15.3 22.8 25.7 10.6 38.3 4.6 51.7 2.9 70.5 2.3 77.7 2 233.1 2.2 520c.3 422.3.4 438.7 2.2 445 6.3 22.3 20.2 39 41 49.1 15.6 7.6-29 7 469.6 6.7l447.5-.3 6.5-2.3c26.1-9.5 43.5-27.7 50.7-53.2 1.7-6.3 1.8-23.3 2.1-445 .2-286.9-.1-442.3-.7-449.5-.7-6.9-2-13.9-3.7-18.8-6.9-20.3-24.7-37.6-46.9-45.4l-8-2.8L514 3.3C81 3.1 65.3 3.2 58.5 4.9zm188.3 139.7c27.7 5.7 50.9 24.2 62.8 50 9.8 21 10.4 46.6 1.7 68.2-7.9 19.9-22.4 35.9-41.3 45.6-26.1 13.5-54.8 13.5-81.1 0-39.9-20.6-57.5-68.9-40.4-111.1 8.6-21.4 28.3-40.7 49.6-48.7 14.9-5.6 33.6-7.1 48.7-4zM720 374.1c40.4 3.9 73.8 17.8 97.1 40.4 29.3 28.4 44.1 65 51.6 128.5 1.5 13 1.7 30.7 2 170.8l.4 156.2H719V735.2c0-88-.4-138.6-1.1-145.8-4.6-47.8-21.1-72.8-53.8-81.6-9.3-2.5-32.4-3-44.1-.9-37.2 6.6-58.8 31.2-66.4 75.9-3.2 18.2-3.6 36.2-3.6 161.4V870H399l.2-242.8.3-242.7h144l.3 33.2c.2 28.7.4 33.3 1.7 33.3.8 0 1.5-.4 1.5-.9s2.7-4.9 5.9-9.8c21.8-32.4 58.8-56.1 100.6-64.3 18.9-3.7 41-4.3 66.5-1.9zM304.8 627.2L305 870H154V384l75.3.2 75.2.3.3 242.7z"/></svg>